<?xml version="1.0" encoding="UTF-8"?>
<svg version="1.1" xmlns="http://www.w3.org/2000/svg" width="320" height="80">
<path d="M0 0 C0.87591797 0.00322266 1.75183594 0.00644531 2.65429688 0.00976562 C3.52634766 -0.00634766 4.39839844 -0.02246094 5.296875 -0.0390625 C6.55467773 -0.0400293 6.55467773 -0.0400293 7.83789062 -0.04101562 C8.60544678 -0.04399658 9.37300293 -0.04697754 10.16381836 -0.05004883 C12.79796633 0.42766263 13.56536556 1.24348768 15.21679688 3.32226562 C16.06941912 4.66219781 16.87232043 6.03451498 17.63476562 7.42773438 C18.08005615 8.23774902 18.52534668 9.04776367 18.98413086 9.88232422 C19.45278564 10.74937988 19.92144043 11.61643555 20.40429688 12.50976562 C20.89551025 13.41033691 21.38672363 14.3109082 21.89282227 15.23876953 C25.08215225 21.12187831 28.12820325 27.06038809 31.07128906 33.06958008 C35.46803654 41.97400215 40.33206121 50.63634563 45.12866211 59.32958984 C47.10510678 62.94900681 47.63635441 65.12669025 47.21679688 69.32226562 C44.98473257 72.17007181 43.66686689 73.17224229 40.21679688 74.32226562 C37.72356886 74.43339761 35.25751905 74.48987396 32.76367188 74.49926758 C32.00727417 74.50583878 31.25087646 74.51240997 30.47155762 74.5191803 C27.96996969 74.53888333 25.46844158 74.55056624 22.96679688 74.56054688 C21.68573059 74.56666017 21.68573059 74.56666017 20.37878418 74.57289696 C15.86255129 74.59374015 11.34634868 74.60805212 6.83007812 74.61743164 C2.15902711 74.62852122 -2.51155081 74.662955 -7.18243408 74.70260334 C-10.77002877 74.72869736 -14.35750918 74.73711678 -17.94519043 74.74071312 C-19.66763522 74.74559408 -21.39007441 74.75725079 -23.11242676 74.77575111 C-25.51869783 74.80000087 -27.92372327 74.79920472 -30.33007812 74.79223633 C-31.04393677 74.80504639 -31.75779541 74.81785645 -32.49328613 74.83105469 C-35.68279664 74.7972982 -37.35092069 74.72721846 -39.7258606 72.50242615 C-41.29412428 69.26878475 -41.14430347 66.87617815 -40.78320312 63.32226562 C-39.56494141 60.16699219 -39.56494141 60.16699219 -37.85351562 56.96289062 C-37.54755463 56.38033508 -37.24159363 55.79777954 -36.92636108 55.1975708 C-35.93365004 53.31503588 -34.92129685 51.44389717 -33.90820312 49.57226562 C-33.21611147 48.26893797 -32.52536508 46.9648951 -31.8359375 45.66015625 C-30.46412701 43.06887805 -29.08487172 40.48181547 -27.69824219 37.8984375 C-25.60658572 33.99949264 -23.55372197 30.08077808 -21.50537109 26.15893555 C-19.96258712 23.20927805 -18.40552199 20.26733653 -16.84570312 17.32666016 C-16.13575283 15.98734676 -15.42742583 14.64717166 -14.72070312 13.30615234 C-13.74520486 11.45538456 -12.76503177 9.60718105 -11.78320312 7.75976562 C-11.24695313 6.74785156 -10.71070312 5.7359375 -10.15820312 4.69335938 C-7.33139 -0.18128713 -5.23842197 0.04435923 0 0 Z M9.21679688 25.32226562 C7.23679687 29.61226562 5.25679687 33.90226562 3.21679688 38.32226562 C6.27669271 38.68033854 9.33658854 39.03841146 12.39648438 39.39648438 C15.21679688 40.32226562 15.21679688 40.32226562 16.41210938 42.52929688 C16.67765625 43.45097656 16.94320312 44.37265625 17.21679688 45.32226562 C18.20679687 47.30226563 19.19679688 49.28226563 20.21679688 51.32226562 C12.29679687 51.32226562 4.37679687 51.32226562 -3.78320312 51.32226562 C-6.93227432 56.50237403 -6.93227432 56.50237403 -6.78320312 59.32226562 C4.10679688 59.32226562 14.99679688 59.32226562 26.21679688 59.32226562 C26.71179688 58.33226563 26.71179688 58.33226563 27.21679688 57.32226562 C26.06991366 54.65862122 26.06991366 54.65862122 24.35742188 51.65039062 C23.73609375 50.51085937 23.11476563 49.37132812 22.47460938 48.19726562 C21.80562328 46.98877462 21.1363499 45.78044262 20.46679688 44.57226562 C19.81239472 43.37997209 19.15873979 42.18726812 18.50585938 40.99414062 C17.29407367 38.78001365 16.0786239 36.56788541 14.85839844 34.35839844 C13.24584707 31.37599379 11.71610343 28.36293661 10.21679688 25.32226562 C9.88679688 25.32226562 9.55679688 25.32226562 9.21679688 25.32226562 Z M-23.78320312 60.32226562 C-22.78320312 62.32226562 -22.78320312 62.32226562 -22.78320312 62.32226562 Z M-24.78320312 63.32226562 C-26.24383163 65.96965479 -26.78320312 67.21674897 -26.78320312 70.32226562 C-24.47320313 70.65226562 -22.16320312 70.98226562 -19.78320312 71.32226562 C-21.10320313 68.68226562 -22.42320313 66.04226562 -23.78320312 63.32226562 C-24.11320312 63.32226562 -24.44320313 63.32226562 -24.78320312 63.32226562 Z " fill="#4B13B4" transform="translate(54.783203125,2.677734375)"/>
<path d="M0 0 C4.62 0 9.24 0 14 0 C14.71027344 1.57652344 15.42054688 3.15304688 16.15234375 4.77734375 C17.08061069 6.83078273 18.00900254 8.88416524 18.9375 10.9375 C19.40607422 11.97841797 19.87464844 13.01933594 20.35742188 14.09179688 C20.80537109 15.08115234 21.25332031 16.07050781 21.71484375 17.08984375 C22.12855225 18.00628662 22.54226074 18.92272949 22.96850586 19.86694336 C23.82337906 21.93296129 23.82337906 21.93296129 25 23 C28.63 15.41 32.26 7.82 36 0 C40.62 0 45.24 0 50 0 C50 15.51 50 31.02 50 47 C45.05 47 40.1 47 35 47 C35 41.06 35 35.12 35 29 C32.36 35.27 29.72 41.54 27 48 C25.35 47.67 23.7 47.34 22 47 C20.4900917 44.48249541 19.35533559 42.24653238 18.25 39.5625 C17.94707031 38.86833984 17.64414063 38.17417969 17.33203125 37.45898438 C16.54176992 35.64489558 15.76971543 33.82290134 15 32 C14.67 31.34 14.34 30.68 14 30 C13.67 35.61 13.34 41.22 13 47 C8.71 47 4.42 47 0 47 C0 31.49 0 15.98 0 0 Z " fill="#0F0274" transform="translate(126,24)"/>
<path d="M0 0 C5.99330184 3.62385693 10.30257689 8.70252654 12.625 15.3125 C14.50888692 23.04946954 13.8763413 29.85169662 10.0625 36.875 C6.39100622 42.45318741 1.89009263 45.41163579 -4.375 47.5 C-12.97531693 48.34435089 -20.37428142 47.94359673 -27.375 42.5 C-33.39715492 35.91444181 -35.68381602 28.92008034 -35.375 20.125 C-34.54117742 13.2243993 -31.73878301 7.26084077 -26.3046875 2.80078125 C-18.62740493 -2.14270882 -8.60460819 -3.83741858 0 0 Z M-19.6875 15.625 C-22.04267097 19.63751351 -22.17550364 22.95313931 -21.375 27.5 C-19.7504935 30.69099492 -18.35558877 32.72229167 -15.5625 34.9375 C-12.05432971 35.83960093 -9.85937171 35.52128136 -6.375 34.5 C-3.02768981 32.0316334 -0.79438256 29.34720408 0.13671875 25.24609375 C0.39652741 19.95137247 -0.75025972 16.51660409 -4.375 12.5 C-10.79716866 9.05395828 -14.58276316 10.93416074 -19.6875 15.625 Z " fill="#0F0274" transform="translate(215.375,24.5)"/>
<path d="M0 0 C3.26492891 4.19717309 5.68747917 8.69593106 8.1875 13.375 C8.65091797 14.21289062 9.11433594 15.05078125 9.59179688 15.9140625 C13.83609816 23.86509525 13.83609816 23.86509525 13 29 C10.76793569 31.84780619 9.45007001 32.84997666 6 34 C3.50677198 34.11113199 1.04072218 34.16760834 -1.453125 34.17700195 C-2.20952271 34.18357315 -2.96592041 34.19014435 -3.74523926 34.19691467 C-6.24682718 34.2166177 -8.7483553 34.22830062 -11.25 34.23828125 C-12.53106628 34.24439454 -12.53106628 34.24439454 -13.8380127 34.25063133 C-18.35424558 34.27147452 -22.87044819 34.28578649 -27.38671875 34.29516602 C-32.05776977 34.30625559 -36.72834769 34.34068938 -41.39923096 34.38033772 C-44.98682565 34.40643174 -48.57430605 34.41485115 -52.1619873 34.41844749 C-53.8844321 34.42332846 -55.60687128 34.43498517 -57.32922363 34.45348549 C-59.7354947 34.47773525 -62.14052014 34.4769391 -64.546875 34.4699707 C-65.61766296 34.48918579 -65.61766296 34.48918579 -66.71008301 34.50878906 C-69.9006088 34.47502183 -71.56715794 34.40644634 -73.94042969 32.17790222 C-75.52638699 28.91803367 -75.39565512 26.58752673 -75 23 C-73.46875 19.47265625 -73.46875 19.47265625 -71.5 16.0625 C-70.8503125 14.91910156 -70.200625 13.77570312 -69.53125 12.59765625 C-69.0259375 11.74042969 -68.520625 10.88320313 -68 10 C-67.566875 10.66 -67.13375 11.32 -66.6875 12 C-65.8521875 12.99 -65.8521875 12.99 -65 14 C-61.76717488 14 -60.41904195 13.35028697 -57.51171875 12.046875 C-49.18686919 8.93585856 -40.58276378 9.32222471 -31.8125 9.25 C-30.08004899 9.22178788 -28.34762513 9.1918533 -26.61523438 9.16015625 C-22.41020577 9.08691769 -18.20549747 9.0369658 -14 9 C-14 9.66 -14 10.32 -14 11 C-21.92 11 -29.84 11 -38 11 C-38.66 12.98 -39.32 14.96 -40 17 C-40.33 17.66 -40.66 18.32 -41 19 C-40.33057373 18.98952637 -39.66114746 18.97905273 -38.97143555 18.96826172 C-35.87683007 18.92615099 -32.78228522 18.90050147 -29.6875 18.875 C-28.63498047 18.85824219 -27.58246094 18.84148438 -26.49804688 18.82421875 C-8.97740168 18.71639939 -8.97740168 18.71639939 -2 23 C-0.60287726 24.95597184 0.73779907 26.95436401 2 29 C3.11258591 30.32745166 3.11258591 30.32745166 5.9375 30.25 C6.948125 30.1675 7.95875 30.085 9 30 C11.28212429 27.26108764 11.28212429 27.26108764 10.76782227 24.58032227 C10.00474818 22.01595661 9.06961853 20.01519065 7.71484375 17.71484375 C7.04291992 16.54791992 7.04291992 16.54791992 6.35742188 15.35742188 C5.40810157 13.73952935 4.45757339 12.12234498 3.50585938 10.50585938 C3.05919922 9.72919922 2.61253906 8.95253906 2.15234375 8.15234375 C1.73976318 7.45101318 1.32718262 6.74968262 0.90209961 6.02709961 C0 4 0 4 0 0 Z M-58 20 C-57 22 -57 22 -57 22 Z M-59 23 C-60.4606285 25.64738916 -61 26.89448334 -61 30 C-58.69 30.33 -56.38 30.66 -54 31 C-55.32 28.36 -56.64 25.72 -58 23 C-58.33 23 -58.66 23 -59 23 Z " fill="#1342C4" transform="translate(89,43)"/>
<path d="M0 0 C7.610625 -0.061875 7.610625 -0.061875 15.375 -0.125 C16.97520996 -0.14320801 18.57541992 -0.16141602 20.22412109 -0.18017578 C22.10478271 -0.18766846 22.10478271 -0.18766846 24.0234375 -0.1953125 C25.31169434 -0.20578613 26.59995117 -0.21625977 27.92724609 -0.22705078 C31 0 31 0 33 2 C33.27629475 5.68024605 33.0859315 9.30494557 33 13 C27.06 13 21.12 13 15 13 C15 14.65 15 16.3 15 18 C20.61 18 26.22 18 32 18 C32 21.96 32 25.92 32 30 C27.55107688 30.88978462 24.61974596 30.96543145 20.1875 30.5625 C19.02605469 30.46066406 17.86460937 30.35882813 16.66796875 30.25390625 C15.78753906 30.17011719 14.90710938 30.08632813 14 30 C14 31.98 14 33.96 14 36 C20.6 36 27.2 36 34 36 C34 46 34 46 33 49 C21.78 48.67 10.56 48.34 -1 48 C-0.67 32.16 -0.34 16.32 0 0 Z " fill="#0F0274" transform="translate(277,23)"/>
<path d="M0 0 C4.62 0 9.24 0 14 0 C14.03867188 2.02640625 14.03867188 2.02640625 14.078125 4.09375 C14.13444107 5.89586409 14.19178759 7.69794617 14.25 9.5 C14.26417969 10.386875 14.27835938 11.27375 14.29296875 12.1875 C14.52504807 18.50005742 15.90542515 22.50403507 19 28 C19 28.66 19 29.32 19 30 C19.66 30 20.32 30 21 30 C21.268125 29.154375 21.53625 28.30875 21.8125 27.4375 C23 24 23 24 24.53125 20.84375 C26.35485401 16.63032661 26.55123112 12.60609368 26.6875 8.0625 C26.72166016 7.28326172 26.75582031 6.50402344 26.79101562 5.70117188 C26.8726071 3.80125607 26.93799885 1.90065597 27 0 C31.62 0 36.24 0 41 0 C42.8556057 15.01353705 38.48490692 25.38880806 31.3503418 38.49316406 C29.83994624 41.29713107 28.42432621 44.15134759 27 47 C22.38 47 17.76 47 13 47 C11.01840325 43.06370599 9.0396244 39.12603953 7.0625 35.1875 C6.49853516 34.06794922 5.93457031 32.94839844 5.35351562 31.79492188 C4.81533203 30.72177734 4.27714844 29.64863281 3.72265625 28.54296875 C2.97640991 27.0583313 2.97640991 27.0583313 2.21508789 25.54370117 C0.50055015 21.9544368 -0.12271312 19.26595955 -0.09765625 15.33203125 C-0.09443359 14.43935547 -0.09121094 13.54667969 -0.08789062 12.62695312 C-0.07951172 11.69818359 -0.07113281 10.76941406 -0.0625 9.8125 C-0.05798828 8.87212891 -0.05347656 7.93175781 -0.04882812 6.96289062 C-0.03704645 4.64189992 -0.01911114 2.32094193 0 0 Z " fill="#0F0274" transform="translate(231,24)"/>
<path d="M0 0 C2.0625 0.4375 2.0625 0.4375 4 1 C5.79212463 8.12981955 6.59322818 12.47895627 3 19 C2.6339859 20.3247349 2.29291979 21.65720929 2 23 C2.91495239 22.98428955 2.91495239 22.98428955 3.84838867 22.96826172 C6.62805007 22.92653379 9.40764539 22.90062078 12.1875 22.875 C13.14720703 22.85824219 14.10691406 22.84148438 15.09570312 22.82421875 C16.49272461 22.81455078 16.49272461 22.81455078 17.91796875 22.8046875 C18.77156982 22.79421387 19.6251709 22.78374023 20.50463867 22.77294922 C24.03080648 23.0937922 27.03761166 23.85561272 29.36328125 26.62109375 C32 31.66666667 32 31.66666667 32 35 C30.97753174 35.00410889 29.95506348 35.00821777 28.90161133 35.01245117 C25.04500447 35.03450887 21.18937991 35.08906458 17.33325195 35.15258789 C15.67612242 35.17553893 14.01885177 35.19010886 12.36157227 35.19555664 C2.45621491 35.23449515 -5.51313766 35.82361253 -14.62231445 40.0324707 C-15.40695068 40.35175537 -16.19158691 40.67104004 -17 41 C-17.66 40.67 -18.32 40.34 -19 40 C-20.44021686 34.40012093 -19.75076713 31.43283478 -17.03515625 26.41015625 C-16.72299667 25.82076767 -16.4108371 25.23137909 -16.08921814 24.62413025 C-15.09721057 22.76058876 -14.08057614 20.91190459 -13.0625 19.0625 C-12.38178457 17.79451972 -11.70273021 16.5256462 -11.02539062 15.25585938 C-9.36934388 12.16000992 -7.69094554 9.07695607 -6 6 C-5.01 6 -4.02 6 -3 6 C-2.690625 5.195625 -2.38125 4.39125 -2.0625 3.5625 C-1 1 -1 1 0 0 Z " fill="#6625CD" transform="translate(42,18)"/>
<path d="M0 0 C3.26492891 4.19717309 5.68747917 8.69593106 8.1875 13.375 C8.65091797 14.21289062 9.11433594 15.05078125 9.59179688 15.9140625 C13.83609816 23.86509525 13.83609816 23.86509525 13 29 C10.76793569 31.84780619 9.45007001 32.84997666 6 34 C3.50677198 34.11113199 1.04072218 34.16760834 -1.453125 34.17700195 C-2.20952271 34.18357315 -2.96592041 34.19014435 -3.74523926 34.19691467 C-6.24682718 34.2166177 -8.7483553 34.22830062 -11.25 34.23828125 C-12.53106628 34.24439454 -12.53106628 34.24439454 -13.8380127 34.25063133 C-18.35424558 34.27147452 -22.87044819 34.28578649 -27.38671875 34.29516602 C-32.05776977 34.30625559 -36.72834769 34.34068938 -41.39923096 34.38033772 C-44.98682565 34.40643174 -48.57430605 34.41485115 -52.1619873 34.41844749 C-53.8844321 34.42332846 -55.60687128 34.43498517 -57.32922363 34.45348549 C-59.7354947 34.47773525 -62.14052014 34.4769391 -64.546875 34.4699707 C-65.61766296 34.48918579 -65.61766296 34.48918579 -66.71008301 34.50878906 C-69.9006088 34.47502183 -71.56715794 34.40644634 -73.94042969 32.17790222 C-75.52638699 28.91803367 -75.39565512 26.58752673 -75 23 C-73.46875 19.47265625 -73.46875 19.47265625 -71.5 16.0625 C-70.8503125 14.91910156 -70.200625 13.77570312 -69.53125 12.59765625 C-69.0259375 11.74042969 -68.520625 10.88320313 -68 10 C-67.566875 10.66 -67.13375 11.32 -66.6875 12 C-65.8521875 12.99 -65.8521875 12.99 -65 14 C-61.76717488 14 -60.41904195 13.35028697 -57.51171875 12.046875 C-49.18686919 8.93585856 -40.58276378 9.32222471 -31.8125 9.25 C-30.08004899 9.22178788 -28.34762513 9.1918533 -26.61523438 9.16015625 C-22.41020577 9.08691769 -18.20549747 9.0369658 -14 9 C-14 9.66 -14 10.32 -14 11 C-21.92 11 -29.84 11 -38 11 C-38.33 11.66 -38.66 12.32 -39 13 C-39 12.34 -39 11.68 -39 11 C-46.22835475 11.76885955 -46.22835475 11.76885955 -52.5625 14.9375 C-53.72881551 16.61090921 -54.86854889 18.30282333 -56 20 C-56.66 20 -57.32 20 -58 20 C-57.773125 20.598125 -57.54625 21.19625 -57.3125 21.8125 C-57.209375 22.534375 -57.10625 23.25625 -57 24 C-58.375 25.5625 -58.375 25.5625 -60 27 C-60.33 27.99 -60.66 28.98 -61 30 C-60.36191406 29.98839844 -59.72382812 29.97679688 -59.06640625 29.96484375 C-58.24011719 29.95582031 -57.41382812 29.94679688 -56.5625 29.9375 C-55.73878906 29.92589844 -54.91507813 29.91429688 -54.06640625 29.90234375 C-52 30 -52 30 -51 31 C-49.25228813 31.09981544 -47.50055874 31.13080761 -45.75 31.1328125 C-44.12384766 31.13474609 -44.12384766 31.13474609 -42.46484375 31.13671875 C-40.74974609 31.13091797 -40.74974609 31.13091797 -39 31.125 C-37.88753906 31.12886719 -36.77507813 31.13273437 -35.62890625 31.13671875 C-29.3295384 31.129299 -23.24725474 30.79350211 -17 30 C-12.33333333 30 -7.66666667 30 -3 30 C-3 27.69 -3 25.38 -3 23 C-2.38125 23.78375 -1.7625 24.5675 -1.125 25.375 C0.89858661 27.96837647 0.89858661 27.96837647 3 30 C6 30.41666667 6 30.41666667 9 30 C11.28212429 27.26108764 11.28212429 27.26108764 10.76782227 24.58032227 C10.00474818 22.01595661 9.06961853 20.01519065 7.71484375 17.71484375 C7.04291992 16.54791992 7.04291992 16.54791992 6.35742188 15.35742188 C5.40810157 13.73952935 4.45757339 12.12234498 3.50585938 10.50585938 C3.05919922 9.72919922 2.61253906 8.95253906 2.15234375 8.15234375 C1.73976318 7.45101318 1.32718262 6.74968262 0.90209961 6.02709961 C0 4 0 4 0 0 Z " fill="#120A7E" transform="translate(89,43)"/>
<path d="M0 0 C4.5079104 1.65290048 4.83627044 2.64746737 6.9375 6.8125 C7.89304588 8.99217763 8.8309148 11.17969936 9.75 13.375 C10.20117188 14.26703125 10.65234375 15.1590625 11.1171875 16.078125 C13.2172054 20.44286808 14.20991185 23.33972504 12.75 28.0625 C11.07948973 32.02379439 9.00539128 35.71971068 6.75 39.375 C2.13 39.375 -2.49 39.375 -7.25 39.375 C-8.25 36.375 -8.25 36.375 -7.3125 34.1875 C-6.961875 33.589375 -6.61125 32.99125 -6.25 32.375 C-5.59 32.375 -4.93 32.375 -4.25 32.375 C-4.04325056 26.58601581 -4.65837921 21.94567277 -6.25 16.375 C-7.24 16.375 -8.23 16.375 -9.25 16.375 C-10.28013277 18.02321244 -11.28114628 19.69003702 -12.25 21.375 C-12.91 21.375 -13.57 21.375 -14.25 21.375 C-12.868047 16.81455511 -11.02496454 12.80862123 -8.75 8.625 C-7.83734375 6.93117188 -7.83734375 6.93117188 -6.90625 5.203125 C-4.1387876 0.47755242 -4.1387876 0.47755242 0 0 Z " fill="#0A4CD0" transform="translate(51.25,2.625)"/>
<path d="M0 0 C2.27024968 -0.08097324 4.54132075 -0.13917704 6.8125 -0.1875 C8.07707031 -0.22230469 9.34164062 -0.25710937 10.64453125 -0.29296875 C14 0 14 0 15.78515625 1.26171875 C16.18605469 1.83535156 16.58695313 2.40898438 17 3 C17.44601563 3.61875 17.89203125 4.2375 18.3515625 4.875 C21.76034058 10.56326772 23.95954473 16.27252526 23 23 C21.22058515 25.49657296 19.69879378 26.4027547 17 28 C11.77406868 25.67736386 10.07355487 22.05477905 8 17 C6.7207099 13.66029562 5.46157299 10.31661508 4.24609375 6.953125 C3.09979355 4.23650133 1.88259499 2.24820039 0 0 Z " fill="#4CA6FB" transform="translate(53,3)"/>
<path d="M0 0 C2.0625 0.4375 2.0625 0.4375 4 1 C5.7783424 8.07498811 6.72820366 12.57206266 3 19 C2.649375 19.9075 2.29875 20.815 1.9375 21.75 C-0.73448158 24.85294635 -3.45527248 25.24765773 -7.34765625 26.2421875 C-11.19852856 27.34243673 -14.47859111 29.108873 -18 31 C-16.37317535 25.29676416 -13.66802013 20.31986097 -10.875 15.125 C-10.40707031 14.24585938 -9.93914063 13.36671875 -9.45703125 12.4609375 C-8.3087907 10.30505729 -7.15636097 8.15153223 -6 6 C-5.01 6 -4.02 6 -3 6 C-2.690625 5.195625 -2.38125 4.39125 -2.0625 3.5625 C-1 1 -1 1 0 0 Z " fill="#8919CA" transform="translate(42,18)"/>
<path d="M0 0 C3.94628179 0.07175058 6.17923545 0.2041071 9.0625 3 C10.76954946 8.46255827 8.79151872 13.25206283 6.5 18.3125 C6.005 19.199375 5.51 20.08625 5 21 C4.608125 21.78375 4.21625 22.5675 3.8125 23.375 C3.544375 23.91125 3.27625 24.4475 3 25 C2.34 25 1.68 25 1 25 C0.67 25.66 0.34 26.32 0 27 C-0.99 23.37 -1.98 19.74 -3 16 C-3.99 16 -4.98 16 -6 16 C-7.03013277 17.64821244 -8.03114628 19.31503702 -9 21 C-9.66 21 -10.32 21 -11 21 C-9.618047 16.43955511 -7.77496454 12.43362123 -5.5 8.25 C-4.58734375 6.55617188 -4.58734375 6.55617188 -3.65625 4.828125 C-2 2 -2 2 0 0 Z " fill="#350497" transform="translate(48,3)"/>
<path d="M0 0 C0.93134766 0.00322266 1.86269531 0.00644531 2.82226562 0.00976562 C4.26182617 0.02233398 4.26182617 0.02233398 5.73046875 0.03515625 C6.70951172 0.03966797 7.68855469 0.04417969 8.69726562 0.04882812 C11.10422986 0.06056941 13.51106732 0.07699206 15.91796875 0.09765625 C13.31458601 2.70103899 11.3863654 2.76398174 7.79296875 3.47265625 C0.32605686 5.12375558 -5.04827702 7.42998623 -11.01953125 12.16015625 C-15.05099934 15.32602085 -19.16241889 16.79942521 -24.08203125 18.09765625 C-25.15625 12.140625 -25.15625 12.140625 -25.08203125 10.09765625 C-22.87848142 6.99722297 -19.54868381 5.63098258 -16.20703125 3.97265625 C-14.66402344 3.19535156 -14.66402344 3.19535156 -13.08984375 2.40234375 C-8.69953434 0.49797577 -4.76086733 -0.02920778 0 0 Z " fill="#375FEC" transform="translate(47.08203125,40.90234375)"/>
<path d="M0 0 C3.26492891 4.19717309 5.68747917 8.69593106 8.1875 13.375 C8.65091797 14.21289062 9.11433594 15.05078125 9.59179688 15.9140625 C13.83609816 23.86509525 13.83609816 23.86509525 13 29 C10.76793569 31.84780619 9.45007001 32.84997666 6 34 C4.22686149 34.08209792 2.45079225 34.10746294 0.67578125 34.09765625 C-0.35224609 34.09443359 -1.38027344 34.09121094 -2.43945312 34.08789062 C-3.51130859 34.07951172 -4.58316406 34.07113281 -5.6875 34.0625 C-6.77095703 34.05798828 -7.85441406 34.05347656 -8.97070312 34.04882812 C-11.64719085 34.03703743 -14.32356777 34.02058063 -17 34 C-14.19086948 30.90238367 -12.51192333 30.5595249 -8.3125 30.3125 C-7.31863281 30.24675781 -6.32476562 30.18101563 -5.30078125 30.11328125 C-4.54152344 30.07589844 -3.78226563 30.03851563 -3 30 C-3 27.69 -3 25.38 -3 23 C-2.38125 23.78375 -1.7625 24.5675 -1.125 25.375 C0.89858661 27.96837647 0.89858661 27.96837647 3 30 C6 30.41666667 6 30.41666667 9 30 C11.28212429 27.26108764 11.28212429 27.26108764 10.76782227 24.58032227 C10.00474818 22.01595661 9.06961853 20.01519065 7.71484375 17.71484375 C7.26689453 16.93689453 6.81894531 16.15894531 6.35742188 15.35742188 C5.40810157 13.73952935 4.45757339 12.12234498 3.50585938 10.50585938 C3.05919922 9.72919922 2.61253906 8.95253906 2.15234375 8.15234375 C1.73976318 7.45101318 1.32718262 6.74968262 0.90209961 6.02709961 C0 4 0 4 0 0 Z " fill="#1A0464" transform="translate(89,43)"/>
<path d="M0 0 C6.33876018 0.35879775 6.33876018 0.35879775 9.0625 3 C10.76954946 8.46255827 8.79151872 13.25206283 6.5 18.3125 C6.005 19.199375 5.51 20.08625 5 21 C4.608125 21.78375 4.21625 22.5675 3.8125 23.375 C3.544375 23.91125 3.27625 24.4475 3 25 C2.34 25 1.68 25 1 25 C1.47577393 22.43082078 2.08034543 20.88108877 3.5625 18.6875 C5.37409028 15.30061383 5.22262474 12.78462062 5 9 C2.03 8.67 -0.94 8.34 -4 8 C-3.07377893 4.29511572 -2.32789515 2.83395931 0 0 Z " fill="#0D0A65" transform="translate(48,3)"/>
<path d="M0 0 C3.05559048 2.48110617 3.60259838 4.51605541 4.0625 8.375 C4.43371948 13.37983404 4.43371948 13.37983404 2.71875 15.83203125 C1.0625 17.1875 1.0625 17.1875 -2 19 C-6.875 16.375 -6.875 16.375 -8 13 C-6.27721043 10.10817465 -4.36681949 7.47550675 -2.3125 4.8125 C-0.80882535 2.92695252 -0.80882535 2.92695252 0 0 Z " fill="#4179F3" transform="translate(72,12)"/>
<path d="M0 0 C0.66 0.33 1.32 0.66 2 1 C2 1.66 2 2.32 2 3 C-1.11307936 5.07538624 -1.76348195 5.24772151 -5.2878418 5.22705078 C-6.57884041 5.22682419 -6.57884041 5.22682419 -7.8959198 5.22659302 C-8.82100845 5.21627045 -9.74609711 5.20594788 -10.69921875 5.1953125 C-11.64940384 5.1924826 -12.59958893 5.18965271 -13.5785675 5.18673706 C-16.61500615 5.17553715 -19.65115042 5.15043288 -22.6875 5.125 C-24.74543845 5.11496996 -26.80338152 5.10584415 -28.86132812 5.09765625 C-33.9076656 5.07559842 -38.95378288 5.04106982 -44 5 C-44.33 4.01 -44.66 3.02 -45 2 C-42.01787087 0.50893543 -39.28390342 0.88058533 -36 1 C-35.67 1.33 -35.34 1.66 -35 2 C-33.25228813 2.09981544 -31.50055874 2.13080761 -29.75 2.1328125 C-28.12384766 2.13474609 -28.12384766 2.13474609 -26.46484375 2.13671875 C-24.74974609 2.13091797 -24.74974609 2.13091797 -23 2.125 C-21.88753906 2.12886719 -20.77507813 2.13273437 -19.62890625 2.13671875 C-9.21675697 2.85523037 -9.21675697 2.85523037 0 0 Z " fill="#193E96" transform="translate(73,72)"/>
<path d="M0 0 C1.02323436 1.31558703 2.01755155 2.65368175 3 4 C3.53625 4.680625 4.0725 5.36125 4.625 6.0625 C6.71586463 10.52934716 6.75218923 15.12069146 7 20 C4.7448078 17.7448078 4.02276532 15.9952413 3 13 C3 12.01 3 11.02 3 10 C-0.2643347 12.23796089 -0.2643347 12.23796089 -3 15 C-3.02827577 18.25789019 -3.02827577 18.25789019 -2 21 C-5.27481575 20.02640613 -6.76205109 19.30933359 -8.875 16.5625 C-10 14 -10 14 -9 11 C-6.525 11.99 -6.525 11.99 -4 13 C-1.81264648 11.56990998 -1.81264648 11.56990998 0 9 C0.35442445 5.97175582 0.23347235 3.03514061 0 0 Z " fill="#5857EE" transform="translate(75,17)"/>
<path d="M0 0 C1.10844919 3.32534757 0.84454356 5.62182575 0 9 C5.7974423 9.24428343 5.7974423 9.24428343 11 7 C10.49396008 9.16874252 10.00016187 10.99967627 9 13 C4.38 13 -0.24 13 -5 13 C-6 10 -6 10 -5.0625 7.8125 C-4.711875 7.214375 -4.36125 6.61625 -4 6 C-3.34 6 -2.68 6 -2 6 C-2 4.35 -2 2.7 -2 1 C-1.34 0.67 -0.68 0.34 0 0 Z " fill="#0C34B5" transform="translate(49,29)"/>
<path d="M0 0 C2.0625 0.4375 2.0625 0.4375 4 1 C5.7783424 8.07498811 6.72820366 12.57206266 3 19 C2.1646875 20.4540625 2.1646875 20.4540625 1.3125 21.9375 C0.6628125 22.9584375 0.6628125 22.9584375 0 24 C-1.32 23.67 -2.64 23.34 -4 23 C-3.175 22.071875 -2.35 21.14375 -1.5 20.1875 C1.89073918 15.48080822 1.81503201 10.60227265 1 5 C0.05686794 2.7403627 0.05686794 2.7403627 -1 1 C-0.67 0.67 -0.34 0.34 0 0 Z " fill="#620DBD" transform="translate(42,18)"/>
<path d="M0 0 C0.93134766 0.00322266 1.86269531 0.00644531 2.82226562 0.00976562 C4.26182617 0.02233398 4.26182617 0.02233398 5.73046875 0.03515625 C6.70951172 0.03966797 7.68855469 0.04417969 8.69726562 0.04882812 C11.10422986 0.06056941 13.51106732 0.07699206 15.91796875 0.09765625 C13.29529607 2.72032893 11.21283984 2.87985288 7.60546875 3.66015625 C6.47496094 3.90894531 5.34445313 4.15773438 4.1796875 4.4140625 C1.42854153 4.99064998 -1.32414213 5.55435727 -4.08203125 6.09765625 C-4.08203125 4.77765625 -4.08203125 3.45765625 -4.08203125 2.09765625 C-4.6853125 2.32582031 -5.28859375 2.55398437 -5.91015625 2.7890625 C-6.709375 3.07652344 -7.50859375 3.36398438 -8.33203125 3.66015625 C-9.1209375 3.95019531 -9.90984375 4.24023438 -10.72265625 4.5390625 C-13.27306577 5.14288462 -14.63525354 4.94504945 -17.08203125 4.09765625 C-11.28817219 1.48473942 -6.43372002 -0.03947067 0 0 Z " fill="#71A7F6" transform="translate(47.08203125,40.90234375)"/>
<path d="M0 0 C3.44693793 5.17040689 7.36166493 11.35751745 6.7265625 17.75390625 C5.99159983 20.02064754 5.26226576 21.97941488 4 24 C3.34 24.33 2.68 24.66 2 25 C2.10699219 24.43152344 2.21398438 23.86304687 2.32421875 23.27734375 C3.23796821 17.39201123 2.64794602 14.29589204 0 9 C0 8.01 0 7.02 0 6 C-0.66 5.67 -1.32 5.34 -2 5 C-1.34 3.35 -0.68 1.7 0 0 Z " fill="#0B31A3" transform="translate(58,11)"/>
<path d="M0 0 C2.12038635 2.61514317 4.13091744 5.19637616 6 8 C1.47849025 9.71121754 -2.55617153 10.35223612 -7.375 10.625 C-9.24285156 10.73714844 -9.24285156 10.73714844 -11.1484375 10.8515625 C-12.55996094 10.92503906 -12.55996094 10.92503906 -14 11 C-12.18182999 8.68540132 -11.24384457 8.04622813 -8.30078125 7.48828125 C-6.82158203 7.40126953 -6.82158203 7.40126953 -5.3125 7.3125 C-3.82169922 7.21388672 -3.82169922 7.21388672 -2.30078125 7.11328125 C-1.54152344 7.07589844 -0.78226563 7.03851563 0 7 C0 4.69 0 2.38 0 0 Z " fill="#100375" transform="translate(86,66)"/>
<path d="M0 0 C1.31872662 0.39651917 2.62997101 0.81798691 3.9375 1.25 C4.66839844 1.48203125 5.39929688 1.7140625 6.15234375 1.953125 C7.06693359 2.47132812 7.06693359 2.47132812 8 3 C8.33 4.32 8.66 5.64 9 7 C4.545 8.485 4.545 8.485 0 10 C-1.125 2.25 -1.125 2.25 0 0 Z " fill="#263BD1" transform="translate(23,49)"/>
<path d="M0 0 C0.99 0.33 1.98 0.66 3 1 C5.23138745 5.5397193 6.29643339 9.67745105 5.1875 14.625 C4.795625 15.40875 4.40375 16.1925 4 17 C1.86820176 13.80230264 1.36753633 11.52783506 0.66015625 7.83984375 C0.06811776 5.61509461 0.06811776 5.61509461 -3 4 C-2.01 2.68 -1.02 1.36 0 0 Z " fill="#4808AE" transform="translate(45,13)"/>
<path d="M0 0 C-7.5 5 -7.5 5 -10 5 C-10 5.66 -10 6.32 -10 7 C-7.03 7 -4.06 7 -1 7 C-1 7.33 -1 7.66 -1 8 C-1.95261719 8.06058594 -2.90523437 8.12117188 -3.88671875 8.18359375 C-5.14097656 8.26738281 -6.39523438 8.35117187 -7.6875 8.4375 C-8.92886719 8.51871094 -10.17023437 8.59992187 -11.44921875 8.68359375 C-14.38180337 8.94491317 -17.13441617 9.34798379 -20 10 C-15.14494844 4.30059164 -7.49267447 -0.19717564 0 0 Z " fill="#4230C9" transform="translate(53,45)"/>
<path d="M0 0 C0.375 2.25 0.375 2.25 0 5 C-4.97297297 9 -4.97297297 9 -8 9 C-8 6.69 -8 4.38 -8 2 C-4.91190305 0.23537317 -3.76687864 0 0 0 Z " fill="#3C71F4" transform="translate(43,43)"/>
<path d="M0 0 C1.65 0.33 3.3 0.66 5 1 C5 1.66 5 2.32 5 3 C5.99 3 6.98 3 8 3 C9.6875 4.5 9.6875 4.5 11 6 C7.90009699 16.09117362 7.90009699 16.09117362 5 20 C4.34 20 3.68 20 3 20 C3.47577393 17.43082078 4.08034543 15.88108877 5.5625 13.6875 C7.37409028 10.30061383 7.22262474 7.78462062 7 4 C4.03 3.67 1.06 3.34 -2 3 C-1.34 2.01 -0.68 1.02 0 0 Z " fill="#180680" transform="translate(46,8)"/>
<path d="M0 0 C0.66 0.33 1.32 0.66 2 1 C2 1.66 2 2.32 2 3 C-1.15314785 5.10209857 -1.86103081 5.2434761 -5.44921875 5.1953125 C-6.72055664 5.18564453 -6.72055664 5.18564453 -8.01757812 5.17578125 C-8.89865234 5.15902344 -9.77972656 5.14226562 -10.6875 5.125 C-11.58017578 5.11597656 -12.47285156 5.10695313 -13.39257812 5.09765625 C-15.59532314 5.07409748 -17.79752588 5.04120329 -20 5 C-16.19045544 2.93127197 -12.57461256 2.40385865 -8.3125 1.9375 C-3.78716637 1.79878244 -3.78716637 1.79878244 0 0 Z " fill="#13298D" transform="translate(73,72)"/>
<path d="M0 0 C1.02323436 1.31558703 2.01755155 2.65368175 3 4 C3.53625 4.680625 4.0725 5.36125 4.625 6.0625 C6.71586463 10.52934716 6.75218923 15.12069146 7 20 C4.33206665 17.33206665 3.63659192 14.67368839 2.375 11.125 C1.92898437 9.89007813 1.48296875 8.65515625 1.0234375 7.3828125 C0 4 0 4 0 0 Z " fill="#3233C9" transform="translate(75,17)"/>
<path d="M0 0 C0.66 0.33 1.32 0.66 2 1 C2 1.66 2 2.32 2 3 C2.99 3.33 3.98 3.66 5 4 C5 5.32 5 6.64 5 8 C0.38 7.01 -4.24 6.02 -9 5 C-9 4.67 -9 4.34 -9 4 C-4.545 3.505 -4.545 3.505 0 3 C0 2.01 0 1.02 0 0 Z " fill="#1A0A87" transform="translate(81,58)"/>
<path d="M0 0 C0.33 0.99 0.66 1.98 1 3 C0.01 4.485 0.01 4.485 -1 6 C-4.2578125 6.29296875 -4.2578125 6.29296875 -8.125 6.1875 C-10.04699219 6.14689453 -10.04699219 6.14689453 -12.0078125 6.10546875 C-12.99523438 6.07066406 -13.98265625 6.03585938 -15 6 C-15 5.67 -15 5.34 -15 5 C-9.06 4.505 -9.06 4.505 -3 4 C-2.67 3.01 -2.34 2.02 -2 1 C-1.34 0.67 -0.68 0.34 0 0 Z " fill="#1940A9" transform="translate(59,36)"/>
<path d="M0 0 C0.375 2.1875 0.375 2.1875 0 5 C-1.83961648 6.99022836 -3.79186148 8.38989899 -6 10 C-6.6796875 8.203125 -6.6796875 8.203125 -7 6 C-5.8203125 4.296875 -5.8203125 4.296875 -4.125 2.75 C-3.57070312 2.22921875 -3.01640625 1.7084375 -2.4453125 1.171875 C-1 0 -1 0 0 0 Z " fill="#4867F3" transform="translate(76,21)"/>
<path d="M0 0 C2.24107496 2.88138209 4.33168894 5.74679343 6 9 C5.67 9.99 5.34 10.98 5 12 C2.63719073 9.85199157 1.41659766 7.83319533 0 5 C-0.66 4.67 -1.32 4.34 -2 4 C-1.34 2.68 -0.68 1.36 0 0 Z " fill="#7720D0" transform="translate(76,43)"/>
<path d="M0 0 C2.25 2.3125 2.25 2.3125 4 5 C3.67 5.99 3.34 6.98 3 8 C3 7.34 3 6.68 3 6 C2.01 6 1.02 6 0 6 C0 5.34 0 4.68 0 4 C-3.62885324 3.84850702 -3.62885324 3.84850702 -7 5 C-5.22678182 1.07358831 -4.52021524 0 0 0 Z " fill="#12016F" transform="translate(51,5)"/>
<path d="M0 0 C0.99 0.495 0.99 0.495 2 1 C1.01 1.495 1.01 1.495 0 2 C0 1.34 0 0.68 0 0 Z M-3 2 C-2.01 2.33 -1.02 2.66 0 3 C-1.98 6.63 -3.96 10.26 -6 14 C-6.66 14 -7.32 14 -8 14 C-6.68938409 9.76570244 -5.05643741 5.92592596 -3 2 Z " fill="#6D0BB4" transform="translate(39,22)"/>
<path d="M0 0 C2.375 0.625 2.375 0.625 5 2 C6.3125 5.125 6.3125 5.125 7 8 C5.68 8 4.36 8 3 8 C0 2.25 0 2.25 0 0 Z " fill="#5225BA" transform="translate(69,36)"/>
<path d="M0 0 C3 3.625 3 3.625 3 7 C1.02 7.99 -0.96 8.98 -3 10 C-2.69201674 8.51988629 -2.378482 7.04092675 -2.0625 5.5625 C-1.88847656 4.73878906 -1.71445312 3.91507813 -1.53515625 3.06640625 C-1 1 -1 1 0 0 Z " fill="#1917A5" transform="translate(21,53)"/>
<path d="M0 0 C1.0209375 0.02513672 1.0209375 0.02513672 2.0625 0.05078125 C3.0834375 0.05658203 3.0834375 0.05658203 4.125 0.0625 C6.0625 0.36328125 6.0625 0.36328125 9.0625 2.36328125 C4.4425 2.69328125 -0.1775 3.02328125 -4.9375 3.36328125 C-1.9375 0.36328125 -1.9375 0.36328125 0 0 Z " fill="#111676" transform="translate(76.9375,73.63671875)"/>
<path d="M0 0 C2.6855594 2.6855594 3.06049974 5.37621328 4 9 C2.68 9.33 1.36 9.66 0 10 C-1.125 2.25 -1.125 2.25 0 0 Z " fill="#2528B9" transform="translate(23,49)"/>
<path d="M0 0 C0 1.65 0 3.3 0 5 C-1.65 4.67 -3.3 4.34 -5 4 C-5 3.34 -5 2.68 -5 2 C-5.66 1.67 -6.32 1.34 -7 1 C-4 0 -4 0 0 0 Z " fill="#468CFC" transform="translate(43,43)"/>
<path d="M0 0 C0 1.65 0 3.3 0 5 C-2.31 4.67 -4.62 4.34 -7 4 C-6.67 3.01 -6.34 2.02 -6 1 C-3.90006779 0.25486277 -2.22568901 0 0 0 Z " fill="#3751E3" transform="translate(31,47)"/>
<path d="M0 0 C0.66 0 1.32 0 2 0 C2 1.32 2 2.64 2 4 C2.99 4 3.98 4 5 4 C5 4.66 5 5.32 5 6 C3.02 6 1.04 6 -1 6 C-1 3 -1 3 0 0 Z " fill="#091F8F" transform="translate(45,35)"/>
<path d="M0 0 C2.475 0.99 2.475 0.99 5 2 C4.67 3.98 4.34 5.96 4 8 C0 3.375 0 3.375 0 0 Z " fill="#3741BA" transform="translate(65,28)"/>
<path d="M0 0 C2.00720923 0.28674418 4.0085944 0.61866701 6 1 C6 1.99 6 2.98 6 4 C4.02 4 2.04 4 0 4 C-0.33 3.01 -0.66 2.02 -1 1 C-0.67 0.67 -0.34 0.34 0 0 Z " fill="#1A248C" transform="translate(29,73)"/>
<path d="M0 0 C0.66 0.33 1.32 0.66 2 1 C2.4140625 3.06640625 2.4140625 3.06640625 2.625 5.5625 C2.69976562 6.38878906 2.77453125 7.21507812 2.8515625 8.06640625 C2.92503906 9.02353516 2.92503906 9.02353516 3 10 C0.3144406 7.3144406 -0.06049974 4.62378672 -1 1 C-0.67 0.67 -0.34 0.34 0 0 Z " fill="#4429D2" transform="translate(79,27)"/>
</svg>
