<?xml version="1.0" encoding="UTF-8"?>
<svg version="1.1" xmlns="http://www.w3.org/2000/svg" width="192" height="192">
<path d="M0 0 C1.23234375 -0.020625 2.4646875 -0.04125 3.734375 -0.0625 C4.92289062 -0.06765625 6.11140625 -0.0728125 7.3359375 -0.078125 C8.96474854 -0.09214355 8.96474854 -0.09214355 10.62646484 -0.10644531 C14.80049804 0.38973515 17.53358641 1.87240599 20.14453125 5.16796875 C23.45303973 10.9753507 26.49787936 16.885407 29.45678711 22.8762207 C34.88215178 33.86076806 40.6960362 44.62778019 46.6875 55.3125 C50.18265317 61.54968485 53.48847911 67.848482 56.64770508 74.26171875 C59.14421753 79.32165398 61.73385507 84.32657085 64.375 89.3125 C64.73988525 90.00287354 65.10477051 90.69324707 65.48071289 91.40454102 C67.19824959 94.63549224 68.95860212 97.81605611 70.8359375 100.95703125 C73.10416844 105.13196287 73.73943378 108.5406099 73.625 113.25 C72.6875 116.3125 72.6875 116.3125 71.625 118.25 C70.965 118.25 70.305 118.25 69.625 118.25 C69.295 119.57 68.965 120.89 68.625 122.25 C61.17864765 124.06149015 54.13888908 124.53733009 46.4934082 124.50878906 C45.32300995 124.5122937 44.15261169 124.51579834 42.94674683 124.51940918 C39.10636334 124.52815932 35.26616637 124.52240219 31.42578125 124.515625 C28.74399082 124.51697331 26.06220592 124.51891247 23.38041687 124.52142334 C17.7730408 124.52504924 12.16571763 124.52029861 6.55834961 124.51074219 C0.08942924 124.49984431 -6.37936516 124.50339839 -12.84828252 124.514395 C-18.42223137 124.5234882 -23.99614244 124.52474371 -29.57009631 124.51951766 C-32.89070053 124.51641116 -36.21123302 124.51674618 -39.53183556 124.52259064 C-43.23184077 124.52767562 -46.93160454 124.51991829 -50.6315918 124.50878906 C-51.72215378 124.51283752 -52.81271576 124.51688599 -53.93632507 124.52105713 C-59.47836897 124.49021169 -64.14080029 124.11170327 -69.375 122.25 C-69.375 120.93 -69.375 119.61 -69.375 118.25 C-70.035 118.25 -70.695 118.25 -71.375 118.25 C-73.77635865 111.04592405 -72.66350988 106.21425863 -69.375 99.5625 C-68.08336142 97.1006275 -66.74229183 94.67057978 -65.375 92.25 C-65.03307617 91.64397949 -64.69115234 91.03795898 -64.33886719 90.41357422 C-62.97363649 88.00604983 -61.5998049 85.60380442 -60.21240234 83.20898438 C-57.93199472 79.26819287 -55.83849032 75.2819717 -53.84375 71.19140625 C-51.79663659 67.09173497 -49.64405597 63.04961894 -47.5 59 C-43.90909111 52.21055536 -40.42498991 45.38245626 -37.015625 38.5 C-35.37915628 35.25823338 -33.67306199 32.0646815 -31.9375 28.875 C-27.88879709 21.42942616 -24.13159356 13.84564893 -20.375 6.25 C-20.045 5.59 -19.715 4.93 -19.375 4.25 C-18.715 4.25 -18.055 4.25 -17.375 4.25 C-17.045 3.26 -16.715 2.27 -16.375 1.25 C-11.11059817 -0.50480061 -5.5098933 0.02291016 0 0 Z M-13.375 41.25 C-12.375 43.25 -12.375 43.25 -12.375 43.25 Z M10.625 43.25 C9.330826 45.81126064 8.03959216 48.37393358 6.75 50.9375 C6.38519531 51.65873047 6.02039063 52.37996094 5.64453125 53.12304688 C3.8070758 56.78125364 2.06361498 60.4111695 0.625 64.25 C4.62895739 65.58465246 8.51790462 65.62666235 12.71484375 65.87109375 C15.61664647 66.24891236 17.25585846 66.55994429 19.625 68.25 C21.22265625 70.640625 21.22265625 70.640625 22.6875 73.5 C23.41646484 74.89992188 23.41646484 74.89992188 24.16015625 76.328125 C25.65057662 79.30101684 27.13796467 82.27541382 28.625 85.25 C26.88428223 85.20286865 26.88428223 85.20286865 25.10839844 85.15478516 C20.79992472 85.04612686 16.49157179 84.97728297 12.18212891 84.92041016 C10.31766389 84.89024922 8.45334063 84.84931309 6.58935547 84.79736328 C3.90817322 84.72451283 1.22886677 84.69053882 -1.453125 84.6640625 C-2.28555725 84.63309479 -3.1179895 84.60212708 -3.97564697 84.57022095 C-6.26173438 84.56889358 -8.17430814 84.62769944 -10.375 85.25 C-12.9616167 88.01639363 -12.9616167 88.01639363 -14.375 91.25 C-14.72046875 91.94867188 -15.0659375 92.64734375 -15.421875 93.3671875 C-15.65390625 93.94726562 -15.8859375 94.52734375 -16.125 95.125 C-16.5375 96.15625 -16.95 97.1875 -17.375 98.25 C-12.62292523 99.46594189 -7.98991113 99.39433619 -3.12109375 99.3828125 C-2.22439468 99.38376923 -1.32769562 99.38472595 -0.40382385 99.38571167 C1.49323598 99.38639107 3.39029817 99.38455353 5.28735352 99.38037109 C8.15321256 99.3750635 11.01891172 99.38030137 13.88476562 99.38671875 C23.18202386 99.38975776 32.37697148 99.3093306 41.625 98.25 C36.18800542 87.27277677 30.42077065 76.49003429 24.1796875 65.94921875 C21.79613864 61.81094674 19.71071122 57.54371169 17.625 53.25 C16.68956214 51.37397035 15.75210497 49.49894604 14.8125 47.625 C14.08333333 46.16666667 13.35416667 44.70833333 12.625 43.25 C11.965 43.25 11.305 43.25 10.625 43.25 Z M-16.375 47.25 C-15.375 49.25 -15.375 49.25 -15.375 49.25 Z M-18.375 51.25 C-17.375 53.25 -17.375 53.25 -17.375 53.25 Z M-22.375 58.25 C-21.375 60.25 -21.375 60.25 -21.375 60.25 Z M-40.375 94.25 C-39.375 96.25 -39.375 96.25 -39.375 96.25 Z M-42.375 98.25 C-41.375 100.25 -41.375 100.25 -41.375 100.25 Z M-43.375 100.25 C-45.685 104.87 -47.995 109.49 -50.375 114.25 C-47.84934165 118.40811388 -47.84934165 118.40811388 -44.375 119.25 C-42.81381572 119.31740865 -41.2499748 119.33514456 -39.6875 119.3125 C-38.87925781 119.30347656 -38.07101563 119.29445313 -37.23828125 119.28515625 C-36.62339844 119.27355469 -36.00851563 119.26195312 -35.375 119.25 C-36.15875 118.528125 -36.9425 117.80625 -37.75 117.0625 C-42.27822045 112.21083523 -42.59157599 108.44721995 -42.4453125 102.04296875 C-42.41050781 101.15544922 -42.41050781 101.15544922 -42.375 100.25 C-42.705 100.25 -43.035 100.25 -43.375 100.25 Z " fill="#4B42D0" transform="translate(95.375,37.75)"/>
<path d="M0 0 C3.28989253 2.79173845 5.13427303 6.46705095 7.1875 10.1875 C7.58332275 10.89801514 7.97914551 11.60853027 8.38696289 12.34057617 C11.3747835 17.75230876 14.17637189 23.24299185 16.91113281 28.78588867 C22.21079968 39.51654388 27.75208358 50.13331135 33.70385742 60.51733398 C44.02447303 78.54022266 44.02447303 78.54022266 42 89 C41.01 89.33 40.02 89.66 39 90 C38.26676204 92.01508358 38.26676204 92.01508358 38 94 C30.55364765 95.81149015 23.51388908 96.28733009 15.8684082 96.25878906 C14.69800995 96.2622937 13.52761169 96.26579834 12.32174683 96.26940918 C8.48136334 96.27815932 4.64116637 96.27240219 0.80078125 96.265625 C-1.88100918 96.26697331 -4.56279408 96.26891247 -7.24458313 96.27142334 C-12.8519592 96.27504924 -18.45928237 96.27029861 -24.06665039 96.26074219 C-30.53557076 96.24984431 -37.00436516 96.25339839 -43.47328252 96.264395 C-49.04723137 96.2734882 -54.62114244 96.27474371 -60.19509631 96.26951766 C-63.51570053 96.26641116 -66.83623302 96.26674618 -70.15683556 96.27259064 C-73.85684077 96.27767562 -77.55660454 96.26991829 -81.2565918 96.25878906 C-82.34715378 96.26283752 -83.43771576 96.26688599 -84.56132507 96.27105713 C-90.10336897 96.24021169 -94.76580029 95.86170327 -100 94 C-100 92.68 -100 91.36 -100 90 C-100.66 90 -101.32 90 -102 90 C-104.40135865 82.79592405 -103.28850988 77.96425863 -100 71.3125 C-96.757036 65.12592253 -93.24109992 59.07770419 -89.69921875 53.05859375 C-88.22704393 50.40867907 -87.04215121 47.84078782 -86 45 C-85.67 45 -85.34 45 -85 45 C-84.875 47.375 -84.875 47.375 -85 50 C-85.66 50.66 -86.32 51.32 -87 52 C-87 52.99 -87 53.98 -87 55 C-88.18915522 56.68463656 -89.38385789 58.36597719 -90.62109375 60.015625 C-92.80947812 63.16491468 -94.36019602 66.53819159 -96 70 C-95.11957031 69.44570312 -94.23914063 68.89140625 -93.33203125 68.3203125 C-92.15898514 67.58833173 -90.9858007 66.85657261 -89.8125 66.125 C-88.9452832 65.57779297 -88.9452832 65.57779297 -88.06054688 65.01953125 C-84.04832801 62.5260619 -80.31805033 60.45011053 -75.65864563 59.54536438 C-73.05452405 59.01118444 -70.60949983 58.26560408 -68.07495117 57.46948242 C-61.31933357 55.61272969 -54.77225126 55.52375854 -47.80078125 55.48828125 C-46.48458298 55.47033005 -45.1683847 55.45237885 -43.81230164 55.43388367 C-40.35190698 55.38684703 -36.89157532 55.35674089 -33.43096924 55.33044434 C-29.88419143 55.30040162 -26.33763001 55.25395439 -22.79101562 55.20898438 C-15.86080139 55.12348052 -8.93051465 55.05590324 -2 55 C-2 55.66 -2 56.32 -2 57 C-3.15000488 56.97268799 -4.30000977 56.94537598 -5.48486328 56.91723633 C-9.76806697 56.83013789 -14.04901019 56.81580505 -18.33300781 56.82299805 C-20.18377316 56.81603907 -22.03457514 56.78956751 -23.88476562 56.74291992 C-32.55368567 56.39934992 -32.55368567 56.39934992 -41 58 C-44.35204483 61.28419223 -45.82920363 64.48959313 -47 69 C-44.21991151 69.78524986 -41.75063131 70.12613376 -38.86499023 70.12939453 C-38.05992538 70.13254669 -37.25486053 70.13569885 -36.42539978 70.13894653 C-35.56185379 70.1369223 -34.6983078 70.13489807 -33.80859375 70.1328125 C-32.45786522 70.13424759 -32.45786522 70.13424759 -31.07984924 70.13571167 C-29.17261688 70.13639182 -27.2653822 70.13454903 -25.3581543 70.13037109 C-22.47243886 70.12506425 -19.5868822 70.13029893 -16.70117188 70.13671875 C-3.3223403 70.14598314 -3.3223403 70.14598314 10 69 C9.67 67.68 9.34 66.36 9 65 C11.4375 66.1875 11.4375 66.1875 14 68 C14.34282603 69.66473998 14.6743841 71.33180841 15 73 C18.16151821 79.54948125 21.51358792 86.36760924 28 90 C31.13216584 90.58761803 33.87688801 90.66266423 37 90 C39.29302145 88.06526315 39.78726828 86.59757302 40.77734375 83.81640625 C41.09425458 79.80776222 39.41678485 77.05005646 37.5625 73.625 C37.19850098 72.92673096 36.83450195 72.22846191 36.45947266 71.5090332 C35.32001129 69.33180434 34.16122392 67.16568506 33 65 C32.29725033 63.66845745 31.59539548 62.33644217 30.89453125 61.00390625 C28.04982904 55.61621268 25.14707867 50.26304557 22.1875 44.9375 C18.66213031 38.51114491 15.44870974 31.9275763 12.19287109 25.36206055 C9.01358333 18.96912908 5.73880944 12.64112398 2.28564453 6.39160156 C0 2.2075048 0 2.2075048 0 0 Z M-71 66 C-70 68 -70 68 -70 68 Z M-73 70 C-72 72 -72 72 -72 72 Z M-74 72 C-76.31 76.62 -78.62 81.24 -81 86 C-78.47434165 90.15811388 -78.47434165 90.15811388 -75 91 C-73.43881572 91.06740865 -71.8749748 91.08514456 -70.3125 91.0625 C-69.50425781 91.05347656 -68.69601563 91.04445313 -67.86328125 91.03515625 C-67.24839844 91.02355469 -66.63351563 91.01195312 -66 91 C-66.78375 90.278125 -67.5675 89.55625 -68.375 88.8125 C-72.90322045 83.96083523 -73.21657599 80.19721995 -73.0703125 73.79296875 C-73.03550781 72.90544922 -73.03550781 72.90544922 -73 72 C-73.33 72 -73.66 72 -74 72 Z " fill="#133EBF" transform="translate(126,66)"/>
<path d="M0 0 C7.985003 -0.62627475 7.985003 -0.62627475 11.9375 1.8125 C14.55048128 4.58384378 15.90325063 6.3089331 16.4375 10.125 C15.86822136 15.16718221 13.96104661 18.9045806 11 23 C10.01 23.66 9.02 24.32 8 25 C5.25332871 29.38489363 3.06185691 34.06539389 1.9375 39.125 C1.02507426 42.89635972 -0.26450237 45.73027857 -2.0546875 49.125 C-3.33690529 51.6682419 -4.17185639 54.27895671 -5 57 C-5.66371609 59.00098111 -6.330012 61.00111018 -7 63 C-6.24493164 62.99476318 -5.48986328 62.98952637 -4.71191406 62.98413086 C-1.22461816 62.96308775 2.26266431 62.9502541 5.75 62.9375 C7.53083984 62.92493164 7.53083984 62.92493164 9.34765625 62.91210938 C31.16653259 62.85249496 31.16653259 62.85249496 37 67 C38.765625 69.5234375 38.765625 69.5234375 40.25 72.375 C40.75015625 73.31085938 41.2503125 74.24671875 41.765625 75.2109375 C42.93574903 77.85482534 43.48587103 80.17229066 44 83 C42.93456718 83.00546844 42.93456718 83.00546844 41.84761047 83.01104736 C35.09670371 83.04918789 28.34618485 83.10633039 21.59562397 83.18390274 C18.12647648 83.22312192 14.65757309 83.25543343 11.18823242 83.27099609 C7.18368436 83.28928178 3.1800438 83.33934176 -0.82421875 83.390625 C-2.04767502 83.39185364 -3.27113129 83.39308228 -4.53166199 83.39434814 C-11.89375471 83.51734861 -18.11301218 84.60748531 -25.06867981 87.04876709 C-28 88 -28 88 -31.18022156 88.5269165 C-34.75409889 89.12651765 -37.11632268 90.6004632 -40.1875 92.5 C-45.75784753 95.91928251 -45.75784753 95.91928251 -49 97 C-47.00679515 91.38278634 -44.2456073 85.2456073 -40 81 C-40 80.01 -40 79.02 -40 78 C-38.07394264 70.77728489 -34.73359697 64.53528803 -31.171875 58.01953125 C-29.03566703 54.10219801 -27.03658397 50.12593512 -25.0625 46.125 C-22.29564359 40.53470944 -19.43715489 35.00268517 -16.5 29.5 C-12.18097756 21.40756511 -8.06464555 13.22261204 -4 5 C-3.67 4.34 -3.34 3.68 -3 3 C-2.34 3 -1.68 3 -1 3 C-0.67 2.01 -0.34 1.02 0 0 Z " fill="#6124CB" transform="translate(79,39)"/>
<path d="M0 0 C7.985003 -0.62627475 7.985003 -0.62627475 11.9375 1.8125 C14.55048128 4.58384378 15.90325063 6.3089331 16.4375 10.125 C15.86822136 15.16718221 13.96104661 18.9045806 11 23 C10.01 23.66 9.02 24.32 8 25 C5.25332871 29.38489363 3.06185691 34.06539389 1.9375 39.125 C1.02477983 42.8975767 -0.26251193 45.73166461 -2.05859375 49.125 C-3.33081666 51.65888795 -4.12212211 54.30784115 -5 57 C-7.57142857 62.57142857 -7.57142857 62.57142857 -10 65 C-11.93085285 65.26289978 -13.87077479 65.46064599 -15.8125 65.625 C-24.00203007 66.72848902 -29.31035183 70.39517411 -36 75 C-36.99 75.495 -36.99 75.495 -38 76 C-37.51570607 70.64548259 -36.08635638 66.66698417 -33.4375 62.0625 C-32.70376844 60.73936666 -31.97206029 59.41510959 -31.2421875 58.08984375 C-30.86803711 57.41421387 -30.49388672 56.73858398 -30.10839844 56.04248047 C-28.3380602 52.78022283 -26.70159309 49.45460065 -25.0625 46.125 C-22.29620127 40.5344446 -19.43714488 35.00266643 -16.5 29.5 C-12.18097756 21.40756511 -8.06464555 13.22261204 -4 5 C-3.67 4.34 -3.34 3.68 -3 3 C-2.34 3 -1.68 3 -1 3 C-0.67 2.01 -0.34 1.02 0 0 Z " fill="#5A0EAE" transform="translate(79,39)"/>
<path d="M0 0 C0.33 0 0.66 0 1 0 C1.125 2.375 1.125 2.375 1 5 C0.34 5.66 -0.32 6.32 -1 7 C-1 7.99 -1 8.98 -1 10 C-2.18915522 11.68463656 -3.38385789 13.36597719 -4.62109375 15.015625 C-6.80947812 18.16491468 -8.36019602 21.53819159 -10 25 C-9.11957031 24.44570312 -8.23914062 23.89140625 -7.33203125 23.3203125 C-6.15898514 22.58833173 -4.9858007 21.85657261 -3.8125 21.125 C-3.23435547 20.76019531 -2.65621094 20.39539063 -2.06054688 20.01953125 C1.95167199 17.5260619 5.68194967 15.45011053 10.34135437 14.54536438 C12.94547595 14.01118444 15.39050017 13.26560408 17.92504883 12.46948242 C24.68066643 10.61272969 31.22774874 10.52375854 38.19921875 10.48828125 C39.51541702 10.47033005 40.8316153 10.45237885 42.18769836 10.43388367 C45.64809302 10.38684703 49.10842468 10.35674089 52.56903076 10.33044434 C56.11580857 10.30040162 59.66236999 10.25395439 63.20898438 10.20898438 C70.13919861 10.12348052 77.06948535 10.05590324 84 10 C84 10.66 84 11.32 84 12 C82.83952148 12.00410889 81.67904297 12.00821777 80.48339844 12.01245117 C76.17419127 12.03423739 71.86589787 12.0885212 67.55712891 12.15258789 C65.69296024 12.17577245 63.8286605 12.1901647 61.96435547 12.19555664 C59.28269735 12.20484315 56.60310194 12.24582419 53.921875 12.29296875 C52.67322662 12.28706978 52.67322662 12.28706978 51.39935303 12.28105164 C46.35488482 12.39518892 46.35488482 12.39518892 42.44238281 15.54418945 C41.96639648 16.35460693 41.49041016 17.16502441 41 18 C41 16.68 41 15.36 41 14 C31.63780889 13.78415698 25.85380012 14.74315846 18.79296875 21.08984375 C16.94021341 22.8811874 16.94021341 22.8811874 16 25 C15.01 25 14.02 25 13 25 C12.773125 25.78375 12.54625 26.5675 12.3125 27.375 C10.59339067 32.12301625 8.31915279 36.52102552 6 41 C7.72226496 44.24849977 7.72226496 44.24849977 11 45 C13.84042412 45.02954379 16.66508848 44.93409401 19.50390625 44.83984375 C22 45 22 45 24 47 C23.01 47.495 23.01 47.495 22 48 C23.65079442 49.65079442 25.63736179 49.22549447 27.91015625 49.31640625 C28.89951172 49.35830078 29.88886719 49.40019531 30.90820312 49.44335938 C31.94912109 49.48267578 32.99003906 49.52199219 34.0625 49.5625 C35.62967773 49.62727539 35.62967773 49.62727539 37.22851562 49.69335938 C39.81886884 49.79981225 42.40932186 49.9018276 45 50 C45 50.33 45 50.66 45 51 C37.7226053 51.05082519 30.44525661 51.08578622 23.16772461 51.10986328 C20.69342335 51.11990364 18.21913391 51.13353863 15.74487305 51.15087891 C12.18275023 51.17521328 8.6207847 51.18650299 5.05859375 51.1953125 C3.40663246 51.21079636 3.40663246 51.21079636 1.72129822 51.22659302 C-3.92356447 51.22741251 -8.67366551 50.9157569 -14 49 C-14 47.68 -14 46.36 -14 45 C-14.66 45 -15.32 45 -16 45 C-18.40135865 37.79592405 -17.28850988 32.96425863 -14 26.3125 C-10.757036 20.12592253 -7.24109992 14.07770419 -3.69921875 8.05859375 C-2.22704393 5.40867907 -1.04215121 2.84078782 0 0 Z M15 21 C16 23 16 23 16 23 Z " fill="#120882" transform="translate(40,111)"/>
<path d="M0 0 C2.7150915 2.7150915 3.3551322 5.86463334 4.5 9.4375 C7.63655703 18.77700202 12.09407228 27.17995093 16.81445312 35.79882812 C18.52382851 38.97257782 20.10394699 42.19906276 21.6875 45.4375 C24.34549279 50.80340093 27.24720887 55.96572444 30.296875 61.1171875 C38.41176471 74.85294118 38.41176471 74.85294118 40 82 C36.25702796 79.50468531 35.10345655 76.56421903 33.25 72.625 C30.28281177 66.49267353 27.08795819 60.59889246 23.59375 54.74609375 C21.6079943 51.3245588 19.85999507 47.81512229 18.1328125 44.2578125 C17.06615657 42.13185688 15.90825439 40.10278182 14.6875 38.0625 C13 35 13 35 13 32 C10.49813354 33.25093323 10.28861449 34.1591379 9.16015625 36.67578125 C8.81919922 37.42150391 8.47824219 38.16722656 8.12695312 38.93554688 C7.60004883 40.11213867 7.60004883 40.11213867 7.0625 41.3125 C6.37031467 42.85225921 5.67381911 44.39008935 4.97265625 45.92578125 C4.66593994 46.61067627 4.35922363 47.29557129 4.04321289 48.0012207 C2.84566054 50.29571195 1.80668328 52.12958482 0 54 C-2.4519043 54.45410156 -2.4519043 54.45410156 -5.32421875 54.390625 C-6.35224609 54.37773438 -7.38027344 54.36484375 -8.43945312 54.3515625 C-9.51130859 54.31804687 -10.58316406 54.28453125 -11.6875 54.25 C-12.77095703 54.23195312 -13.85441406 54.21390625 -14.97070312 54.1953125 C-17.64802146 54.14813508 -20.32356909 54.08232249 -23 54 C-22.51019845 51.37168989 -22.01766357 49.04305496 -21 46.5625 C-19.88362275 44.00443876 -19.88362275 44.00443876 -19.625 41.125 C-18.97225888 37.86129438 -17.69618611 35.6570031 -15.96875 32.84375 C-14.67895653 30.38898178 -14.21512923 27.82137084 -13.625 25.12890625 C-12.45134229 21.13113466 -10.47064017 17.35039334 -8 14 C-7.01 13.67 -6.02 13.34 -5 13 C-3.92414941 10.27564363 -3.92414941 10.27564363 -3 7 C-2.04798774 4.64353401 -1.02375668 2.32671974 0 0 Z M-13 30 C-12 32 -12 32 -12 32 Z M-16 36 C-15 38 -15 38 -15 38 Z M-18 40 C-17 42 -17 42 -17 42 Z " fill="#0949CB" transform="translate(95,49)"/>
<path d="M0 0 C1.27359375 -0.00128906 2.5471875 -0.00257812 3.859375 -0.00390625 C4.52807617 -0.00181152 5.19677734 0.0002832 5.88574219 0.00244141 C7.90046927 0.00773572 9.9149679 0.00252581 11.9296875 -0.00390625 C13.85167969 -0.00197266 13.85167969 -0.00197266 15.8125 0 C16.98441895 0.00112793 18.15633789 0.00225586 19.36376953 0.00341797 C22.90461683 0.13657031 26.3082567 0.57153308 29.8046875 1.1328125 C29.8046875 1.4628125 29.8046875 1.7928125 29.8046875 2.1328125 C29.23661377 2.22780029 28.66854004 2.32278809 28.08325195 2.4206543 C10.89734684 5.34779977 -9.1563173 9.32877415 -21.68896484 22.72998047 C-23.77779281 24.67526499 -26.01435799 24.75061498 -28.734375 25.33203125 C-33.03212733 26.73050621 -36.72780511 29.21492383 -40.55859375 31.57421875 C-43.1953125 33.1328125 -43.1953125 33.1328125 -46.1953125 34.1328125 C-44.20210765 28.51559884 -41.4409198 22.3784198 -37.1953125 18.1328125 C-37.1953125 17.1428125 -37.1953125 16.1528125 -37.1953125 15.1328125 C-29.74510744 6.5660917 -20.86923029 2.77099743 -9.8203125 1.4921875 C-6.17362948 0.99293923 -4.06369349 0.00393388 0 0 Z " fill="#3960E3" transform="translate(76.1953125,101.8671875)"/>
<path d="M0 0 C2.7150915 2.7150915 3.3551322 5.86463334 4.5 9.4375 C7.63655703 18.77700202 12.09407228 27.17995093 16.81445312 35.79882812 C18.52382851 38.97257782 20.10394699 42.19906276 21.6875 45.4375 C24.34549279 50.80340093 27.24720887 55.96572444 30.296875 61.1171875 C38.41176471 74.85294118 38.41176471 74.85294118 40 82 C36.25702796 79.50468531 35.10345655 76.56421903 33.25 72.625 C30.28281177 66.49267353 27.08795819 60.59889246 23.59375 54.74609375 C21.6079943 51.3245588 19.85999507 47.81512229 18.1328125 44.2578125 C17.06615657 42.13185688 15.90825439 40.10278182 14.6875 38.0625 C13 35 13 35 13 32 C10.49813354 33.25093323 10.28861449 34.1591379 9.16015625 36.67578125 C8.81919922 37.42150391 8.47824219 38.16722656 8.12695312 38.93554688 C7.60004883 40.11213867 7.60004883 40.11213867 7.0625 41.3125 C6.37031467 42.85225921 5.67381911 44.39008935 4.97265625 45.92578125 C4.66593994 46.61067627 4.35922363 47.29557129 4.04321289 48.0012207 C2.84566054 50.29571195 1.80668328 52.12958482 0 54 C-2.4519043 54.45410156 -2.4519043 54.45410156 -5.32421875 54.390625 C-6.35224609 54.37773438 -7.38027344 54.36484375 -8.43945312 54.3515625 C-9.51130859 54.31804687 -10.58316406 54.28453125 -11.6875 54.25 C-12.77095703 54.23195312 -13.85441406 54.21390625 -14.97070312 54.1953125 C-17.64802146 54.14813508 -20.32356909 54.08232249 -23 54 C-22.51019845 51.37168989 -22.01766357 49.04305496 -21 46.5625 C-19.88362275 44.00443876 -19.88362275 44.00443876 -19.625 41.125 C-18.97225888 37.86129438 -17.69618611 35.6570031 -15.96875 32.84375 C-14.67895653 30.38898178 -14.21512923 27.82137084 -13.625 25.12890625 C-12.45134229 21.13113466 -10.47064017 17.35039334 -8 14 C-7.01 13.67 -6.02 13.34 -5 13 C-3.92414941 10.27564363 -3.92414941 10.27564363 -3 7 C-2.04798774 4.64353401 -1.02375668 2.32671974 0 0 Z M-5 15 C-6.07401615 16.96124688 -7.06057514 18.97084231 -8 21 C-8.89335287 22.50147861 -9.7893432 24.00139007 -10.6875 25.5 C-12.83893565 29.32548173 -13.08976358 31.60158449 -13 36 C-13.96559107 38.57213482 -15.05578326 41.04818452 -16.22265625 43.53515625 C-17.13431828 46.42590371 -16.81669411 48.11845662 -16 51 C-7.88279609 52.36509817 -7.88279609 52.36509817 0 51 C2.49460032 47.55124379 4.28529527 43.88595622 6 40 C6.39316406 39.22785156 6.78632812 38.45570312 7.19140625 37.66015625 C8.31830875 33.95281035 7.96462677 30.48792355 7.625 26.6875 C7.56828125 25.94693359 7.5115625 25.20636719 7.453125 24.44335938 C7.31258589 22.62806257 7.15772905 20.81388403 7 19 C5.68 19.33 4.36 19.66 3 20 C2.33333333 17.33333333 1.66666667 14.66666667 1 12 C-1.89806571 12 -2.86879517 13.06254107 -5 15 Z M-16 36 C-15 38 -15 38 -15 38 Z M-18 40 C-17 42 -17 42 -17 42 Z " fill="#0B30A1" transform="translate(95,49)"/>
<path d="M0 0 C3.28989253 2.79173845 5.13427303 6.46705095 7.1875 10.1875 C7.58332275 10.89801514 7.97914551 11.60853027 8.38696289 12.34057617 C11.3747835 17.75230876 14.17637189 23.24299185 16.91113281 28.78588867 C22.21079968 39.51654388 27.75208358 50.13331135 33.70385742 60.51733398 C44.02447303 78.54022266 44.02447303 78.54022266 42 89 C40.515 89.495 40.515 89.495 39 90 C38.26676204 92.01508358 38.26676204 92.01508358 38 94 C29.48593215 96.23849027 21.10111768 96.26038268 12.3671875 96.1953125 C10.87932527 96.19157426 9.39146056 96.18873113 7.90359497 96.18673706 C4.02055862 96.17916434 0.13767603 96.15957193 -3.74530029 96.1373291 C-7.72080405 96.11673222 -11.69633307 96.10770598 -15.671875 96.09765625 C-23.44798615 96.07631886 -31.22397139 96.04226155 -39 96 C-38.67 95.34 -38.34 94.68 -38 94 C-33.71 94 -29.42 94 -25 94 C-36.22 93.67 -47.44 93.34 -59 93 C-59 92.67 -59 92.34 -59 92 C-52.12517433 91.82564856 -45.25018007 91.6597679 -38.375 91.5 C-37.34611664 91.47599121 -36.31723328 91.45198242 -35.25717163 91.42724609 C-18.98332849 91.05515321 -2.72240048 90.90957526 13.55517578 91.03710938 C14.68843544 91.04345398 14.68843544 91.04345398 15.84458923 91.04992676 C17.86346255 91.06163985 19.88229822 91.07940813 21.90112305 91.09765625 C25.03656606 91.14680544 25.03656606 91.14680544 28 90 C29.50100352 90.0299113 31.00154492 90.09509527 32.5 90.1875 C36.09221416 90.29593155 36.09221416 90.29593155 39 88.3125 C40.84173648 84.05348439 41.40339472 82.01825562 39.62890625 77.5390625 C38.95468975 76.22677827 38.26490493 74.92241477 37.5625 73.625 C37.19850098 72.92673096 36.83450195 72.22846191 36.45947266 71.5090332 C35.32001129 69.33180434 34.16122392 67.16568506 33 65 C32.29725033 63.66845745 31.59539548 62.33644217 30.89453125 61.00390625 C28.04982904 55.61621268 25.14707867 50.26304557 22.1875 44.9375 C18.66213031 38.51114491 15.44870974 31.9275763 12.19287109 25.36206055 C9.01358333 18.96912908 5.73880944 12.64112398 2.28564453 6.39160156 C0 2.2075048 0 2.2075048 0 0 Z " fill="#0A0C3C" transform="translate(126,66)"/>
<path d="M0 0 C2.71743027 2.71743027 3.50932886 5.86942046 4.6875 9.4375 C5.04424805 10.4594043 5.04424805 10.4594043 5.40820312 11.50195312 C7.12211809 16.63364573 7.12211809 16.63364573 6 20 C5.01 20 4.02 20 3 20 C1.23537317 16.91190305 1 15.76687864 1 12 C-3.52847472 14.20304176 -5.10882463 16.36662035 -7 21 C-7.185625 21.763125 -7.37125 22.52625 -7.5625 23.3125 C-7.706875 23.869375 -7.85125 24.42625 -8 25 C-8.66 25.33 -9.32 25.66 -10 26 C-10.495 27.155 -10.99 28.31 -11.5 29.5 C-13 33 -13 33 -15 34 C-15.309375 34.94875 -15.61875 35.8975 -15.9375 36.875 C-16.94794567 39.84689902 -17.62997461 41.06088831 -20 43 C-19.03415311 39.87957157 -18.01357014 37.02600944 -16.5 34.125 C-14.84711958 30.97535019 -14.84711958 30.97535019 -14.125 27.1875 C-13.02163997 22.38463871 -10.92715324 17.969463 -8 14 C-7.01 13.67 -6.02 13.34 -5 13 C-3.92414941 10.27564363 -3.92414941 10.27564363 -3 7 C-2.04798774 4.64353401 -1.02375668 2.32671974 0 0 Z " fill="#33059B" transform="translate(95,49)"/>
<path d="M0 0 C0 0.66 0 1.32 0 2 C1.65 2 3.3 2 5 2 C5 2.33 5 2.66 5 3 C-11.22875565 5.73738047 -27.60489739 5.19505476 -44 5 C-43.67 4.34 -43.34 3.68 -43 3 C-38.71 3 -34.42 3 -30 3 C-41.22 2.67 -52.44 2.34 -64 2 C-64 1.67 -64 1.34 -64 1 C-57.93927333 0.85471258 -51.87848496 0.71245538 -45.81762695 0.57275391 C-43.76487406 0.52504153 -41.71213874 0.47656554 -39.65942383 0.42724609 C-26.43670671 0.11018559 -13.22657496 -0.06995617 0 0 Z " fill="#0F2C83" transform="translate(131,157)"/>
<path d="M0 0 C3.28989253 2.79173845 5.13427303 6.46705095 7.1875 10.1875 C7.58332275 10.89801514 7.97914551 11.60853027 8.38696289 12.34057617 C11.3747835 17.75230876 14.17637189 23.24299185 16.91113281 28.78588867 C22.56124601 40.22612033 28.52850156 51.49382577 34.875 62.5625 C38.10558365 68.20174218 40.88080896 73.83508061 43 80 C42.01 80.495 42.01 80.495 41 81 C40.5153125 80.01902344 40.030625 79.03804688 39.53125 78.02734375 C33.99360691 66.86139088 28.24226626 55.83260948 22.1875 44.9375 C18.66213031 38.51114491 15.44870974 31.9275763 12.19287109 25.36206055 C9.01358333 18.96912908 5.73880944 12.64112398 2.28564453 6.39160156 C0 2.2075048 0 2.2075048 0 0 Z " fill="#2E11A0" transform="translate(126,66)"/>
<path d="M0 0 C0.433125 0.495 0.86625 0.99 1.3125 1.5 C2.99740483 3.33218192 2.99740483 3.33218192 6 3 C6.32871094 3.6084375 6.65742187 4.216875 6.99609375 4.84375 C11.5740878 13.2801618 16.28089413 21.64193916 21 30 C20.01 30.99 19.02 31.98 18 33 C15.46647146 30.70352676 13.97105967 28.38977938 12.375 25.375 C11.86453125 24.41464844 11.3540625 23.45429687 10.828125 22.46484375 C10.22484375 21.32144531 9.6215625 20.17804688 9 19 C8.20407938 17.52162121 7.40714282 16.04378907 6.609375 14.56640625 C5.78089903 13.02362592 4.95277346 11.48065737 4.125 9.9375 C3.71942871 9.18710449 3.31385742 8.43670898 2.89599609 7.66357422 C0 2.22814611 0 2.22814611 0 0 Z " fill="#7C2CDA" transform="translate(116,93)"/>
<path d="M0 0 C1.27359375 -0.00128906 2.5471875 -0.00257812 3.859375 -0.00390625 C4.52807617 -0.00181152 5.19677734 0.0002832 5.88574219 0.00244141 C7.90046927 0.00773572 9.9149679 0.00252581 11.9296875 -0.00390625 C13.85167969 -0.00197266 13.85167969 -0.00197266 15.8125 0 C16.98441895 0.00112793 18.15633789 0.00225586 19.36376953 0.00341797 C22.90461683 0.13657031 26.3082567 0.57153308 29.8046875 1.1328125 C29.8046875 1.4628125 29.8046875 1.7928125 29.8046875 2.1328125 C27.24319122 2.63848979 24.68069285 3.13751382 22.1171875 3.6328125 C21.0353418 3.84744141 21.0353418 3.84744141 19.93164062 4.06640625 C12.41514835 5.50792532 12.41514835 5.50792532 8.8046875 5.1328125 C8.1446875 4.4728125 7.4846875 3.8128125 6.8046875 3.1328125 C4.24919937 3.0969879 1.8427181 3.17931849 -0.6953125 3.3828125 C-1.41203125 3.4336499 -2.12875 3.4844873 -2.8671875 3.53686523 C-8.40829193 3.97100977 -13.79510261 4.7957413 -19.1953125 6.1328125 C-19.1953125 5.4728125 -19.1953125 4.8128125 -19.1953125 4.1328125 C-18.34066406 3.92785156 -17.48601563 3.72289063 -16.60546875 3.51171875 C-15.50074219 3.24230469 -14.39601563 2.97289063 -13.2578125 2.6953125 C-11.60458984 2.29505859 -11.60458984 2.29505859 -9.91796875 1.88671875 C-3.11516532 0.00301565 -3.11516532 0.00301565 0 0 Z " fill="#85B9F3" transform="translate(76.1953125,101.8671875)"/>
<path d="M0 0 C3.20072464 2.70949374 4.87306679 6.21042475 6.765625 9.87109375 C7.12211121 10.54866226 7.47859741 11.22623077 7.84588623 11.92433167 C8.98584438 14.0926803 10.11839987 16.2647795 11.25 18.4375 C12.73082503 21.27140396 14.21538286 24.10331524 15.703125 26.93359375 C16.06474228 27.62288971 16.42635956 28.31218567 16.79893494 29.02236938 C19.58437846 34.29783476 22.54546251 39.43840051 25.63598633 44.54223633 C27.36804958 47.66317435 28.28736456 50.5160045 29 54 C25.25702796 51.50468531 24.10345655 48.56421903 22.25 44.625 C19.28281177 38.49267353 16.08795819 32.59889246 12.59375 26.74609375 C10.6079943 23.3245588 8.85999507 19.81512229 7.1328125 16.2578125 C6.06615657 14.13185688 4.90825439 12.10278182 3.6875 10.0625 C2 7 2 7 2 4 C1.01 4.33 0.02 4.66 -1 5 C-0.67 3.35 -0.34 1.7 0 0 Z " fill="#270784" transform="translate(106,77)"/>
<path d="M0 0 C0.33 0 0.66 0 1 0 C1.125 2.375 1.125 2.375 1 5 C0.34 5.66 -0.32 6.32 -1 7 C-1 7.99 -1 8.98 -1 10 C-2.18915522 11.68463656 -3.38385789 13.36597719 -4.62109375 15.015625 C-6.80947812 18.16491468 -8.36019602 21.53819159 -10 25 C-9.11957031 24.44570312 -8.23914063 23.89140625 -7.33203125 23.3203125 C-6.15898514 22.58833173 -4.9858007 21.85657261 -3.8125 21.125 C-3.23435547 20.76019531 -2.65621094 20.39539063 -2.06054688 20.01953125 C1.20278033 17.9914748 4.38059362 16.29507949 8 15 C8 15.66 8 16.32 8 17 C7.31035156 17.36351562 6.62070312 17.72703125 5.91015625 18.1015625 C-0.30087677 21.42433736 -6.21940926 24.97499607 -12 29 C-12.66 28.34 -13.32 27.68 -14 27 C-13.68248779 26.39526855 -13.36497559 25.79053711 -13.0378418 25.16748047 C-11.58712725 22.40363509 -10.13730638 19.63932187 -8.6875 16.875 C-8.18798828 15.92367187 -7.68847656 14.97234375 -7.17382812 13.9921875 C-4.73920328 9.34866463 -2.31944344 4.70221638 0 0 Z " fill="#19189F" transform="translate(40,111)"/>
<path d="M0 0 C0.33 0.66 0.66 1.32 1 2 C0.67 2.99 0.34 3.98 0 5 C-0.46902786 9.22125078 -0.58111954 11.22404116 2.00390625 14.67578125 C5.87942999 17.68221753 8.54304649 17.77413978 13.3125 17.8125 C14.05306641 17.83763672 14.79363281 17.86277344 15.55664062 17.88867188 C17.37052969 17.94718443 19.18531903 17.97654349 21 18 C21 18.33 21 18.66 21 19 C18.03 19.33 15.06 19.66 12 20 C15.3 20.33 18.6 20.66 22 21 C22 21.33 22 21.66 22 22 C7.21867882 22.3690205 7.21867882 22.3690205 1 20 C1 18.68 1 17.36 1 16 C0.34 16 -0.32 16 -1 16 C-1.92350727 13.22947819 -2.16329585 11.43311242 -2.1875 8.5625 C-2.20167969 7.80066406 -2.21585938 7.03882813 -2.23046875 6.25390625 C-1.97612666 3.76652685 -1.24017196 2.15191894 0 0 Z " fill="#08044F" transform="translate(25,140)"/>
<path d="M0 0 C0.33 0 0.66 0 1 0 C1.24921564 4.23666594 1.39430816 7.90985392 -0.0625 11.9375 C-2.73099245 14.77815326 -5.23533696 15.24706739 -9 16 C-9.66 16 -10.32 16 -11 16 C-9.31991577 12.21751528 -6.92161446 9.0307578 -4.4375 5.75 C-4.02564453 5.19570312 -3.61378906 4.64140625 -3.18945312 4.0703125 C-2.15306751 2.69298825 -1.07961421 1.3437077 0 0 Z " fill="#6A12BE" transform="translate(72,89)"/>
<path d="M0 0 C2.71743027 2.71743027 3.50932886 5.86942046 4.6875 9.4375 C4.92533203 10.11876953 5.16316406 10.80003906 5.40820312 11.50195312 C7.12211809 16.63364573 7.12211809 16.63364573 6 20 C5.01 20 4.02 20 3 20 C1.23537317 16.91190305 1 15.76687864 1 12 C0.01 12.33 -0.98 12.66 -2 13 C-1.85769192 11.58297487 -1.71099254 10.1663904 -1.5625 8.75 C-1.48128906 7.96109375 -1.40007812 7.1721875 -1.31640625 6.359375 C-1.02365007 4.17635361 -0.57935581 2.1226818 0 0 Z " fill="#092A97" transform="translate(95,49)"/>
<path d="M0 0 C0.66 0.33 1.32 0.66 2 1 C0.02 4.96 -1.96 8.92 -4 13 C-2.68 12.67 -1.36 12.34 0 12 C-1.19628253 14.39256506 -2.12565265 14.79843378 -4.4375 16.0625 C-5.36369141 16.57490234 -5.36369141 16.57490234 -6.30859375 17.09765625 C-7.52991482 17.74921553 -8.76188703 18.38094352 -10 19 C-9.60643703 12.8341801 -7.61731298 8.0310876 -4 3 C-1.83203125 1.234375 -1.83203125 1.234375 0 0 Z " fill="#6808AA" transform="translate(51,96)"/>
<path d="M0 0 C1.86785156 0.01353516 1.86785156 0.01353516 3.7734375 0.02734375 C5.18496094 0.04474609 5.18496094 0.04474609 6.625 0.0625 C6.05155063 2.92974686 5.7635485 3.9239515 3.625 6.0625 C3.625 4.7425 3.625 3.4225 3.625 2.0625 C-5.85974087 1.84383162 -11.58243844 2.85515671 -18.6796875 9.34765625 C-19.51886719 10.19650391 -19.51886719 10.19650391 -20.375 11.0625 C-20.705 10.4025 -21.035 9.7425 -21.375 9.0625 C-17.27308917 2.3236465 -17.27308917 2.3236465 -13.375 1.0625 C-8.86227098 0.15203713 -4.59894667 -0.04338629 0 0 Z " fill="#0B2898" transform="translate(77.375,122.9375)"/>
<path d="M0 0 C1.29422379 0.03541649 1.29422379 0.03541649 2.61459351 0.07154846 C5.37603956 0.14824922 8.13720968 0.23224587 10.8984375 0.31640625 C12.76821557 0.36962052 14.63800719 0.42236096 16.5078125 0.47460938 C21.09652959 0.60387304 25.68501227 0.73968129 30.2734375 0.87890625 C30.7684375 1.86890625 30.7684375 1.86890625 31.2734375 2.87890625 C25.77418329 2.92831554 20.27505808 2.9646302 14.77563477 2.98876953 C12.90451812 2.99883192 11.03341722 3.01248316 9.16235352 3.02978516 C6.47408159 3.05402309 3.78601744 3.06538688 1.09765625 3.07421875 C0.26006271 3.08454132 -0.57753082 3.09486389 -1.44050598 3.10549927 C-7.38494738 3.10664966 -7.38494738 3.10664966 -10.7265625 0.87890625 C-7.38895019 -0.7898999 -3.65896727 -0.11737746 0 0 Z " fill="#1E4BA9" transform="translate(70.7265625,158.12109375)"/>
<path d="M0 0 C3 1 3 1 4.54296875 3.66796875 C5.08566406 4.82941406 5.62835938 5.99085937 6.1875 7.1875 C8.64771135 12.3490807 11.2811576 17.32617783 14.1875 22.25 C17.35052921 27.64637665 19.93125866 33.09319906 22 39 C21.01 39.495 21.01 39.495 20 40 C19.5153125 39.01902344 19.030625 38.03804687 18.53125 37.02734375 C15.02216821 29.95175562 11.46832509 22.90580474 7.75 15.9375 C7.43353516 15.34380615 7.11707031 14.7501123 6.79101562 14.13842773 C5.17153021 11.12056589 3.50052701 8.14363626 1.765625 5.19140625 C0 2 0 2 0 0 Z " fill="#230074" transform="translate(147,107)"/>
<path d="M0 0 C1.0326802 2.78823655 1.04509293 3.8677274 0.0625 6.75 C-0.4634375 7.86375 -0.4634375 7.86375 -1 9 C-1.66 9 -2.32 9 -3 9 C-3.33 10.32 -3.66 11.64 -4 13 C-14.89 12.67 -25.78 12.34 -37 12 C-37 11.67 -37 11.34 -37 11 C-31.1551206 10.10078778 -25.54925846 9.94137243 -19.63671875 10.0625 C-16.89012067 10.12651687 -16.89012067 10.12651687 -14 9 C-12.49899648 9.0299113 -10.99845508 9.09509527 -9.5 9.1875 C-5.92411653 9.30812337 -5.92411653 9.30812337 -3.0625 7.3125 C-1.95356675 4.8989394 -0.9023509 2.49881789 0 0 Z " fill="#0D0458" transform="translate(168,147)"/>
<path d="M0 0 C1.34222697 3.64680536 0.63574193 5.52509526 -0.9375 9 C-2.50174344 12.4784532 -3 14.06311222 -3 18 C-1.02 18.33 0.96 18.66 3 19 C3 19.33 3 19.66 3 20 C1.865625 19.979375 0.73125 19.95875 -0.4375 19.9375 C-3.81575674 19.58422523 -3.81575674 19.58422523 -5 21 C-6.66014616 21.36442233 -8.32706064 21.69972883 -10 22 C-9.32823171 18.19331304 -8.39463134 14.60963407 -7 11 C-6.34 10.67 -5.68 10.34 -5 10 C-4.505 8.845 -4.01 7.69 -3.5 6.5 C-2 3 -2 3 0 2 C0 1.34 0 0.68 0 0 Z " fill="#092CAC" transform="translate(82,81)"/>
<path d="M0 0 C-0.33 0.99 -0.66 1.98 -1 3 C-3.52352312 3.79010307 -5.92199701 4.40034381 -8.5 4.9375 C-13.3524285 6.03013192 -17.85738196 7.16477995 -22.375 9.3125 C-24.169375 10.1478125 -24.169375 10.1478125 -26 11 C-26.66 10.67 -27.32 10.34 -28 10 C-22.31426067 3.18108884 -8.611618 0 0 0 Z " fill="#4734CD" transform="translate(97,105)"/>
<path d="M0 0 C0 0.66 0 1.32 0 2 C1.65 2 3.3 2 5 2 C5 2.33 5 2.66 5 3 C-12.85649203 5.48063781 -12.85649203 5.48063781 -21 4 C-20.00390625 2.54296875 -20.00390625 2.54296875 -18 1 C-15.24822685 0.62173947 -12.69694639 0.39789401 -9.9375 0.3125 C-9.20466797 0.27833984 -8.47183594 0.24417969 -7.71679688 0.20898438 C-5.14431593 0.09323454 -2.57532567 0 0 0 Z " fill="#141E7A" transform="translate(131,157)"/>
<path d="M0 0 C0.5775 0.37125 1.155 0.7425 1.75 1.125 C0.76 1.62 0.76 1.62 -0.25 2.125 C1.40079442 3.77579442 3.38736179 3.35049447 5.66015625 3.44140625 C6.64951172 3.48330078 7.63886719 3.52519531 8.65820312 3.56835938 C9.69912109 3.60767578 10.74003906 3.64699219 11.8125 3.6875 C12.85728516 3.73068359 13.90207031 3.77386719 14.97851562 3.81835938 C17.56886884 3.92481225 20.15932186 4.0268276 22.75 4.125 C22.75 4.455 22.75 4.785 22.75 5.125 C18.22922138 5.18334421 13.70854047 5.21871252 9.1875 5.25 C7.27227539 5.27513672 7.27227539 5.27513672 5.31835938 5.30078125 C-0.90522259 5.33311155 -6.39953928 5.35961206 -12.25 3.125 C-12.25 2.795 -12.25 2.465 -12.25 2.125 C-10.88875 1.939375 -10.88875 1.939375 -9.5 1.75 C-6.33309324 1.31745994 -6.33309324 1.31745994 -4.125 -0.0625 C-2.25 -0.875 -2.25 -0.875 0 0 Z " fill="#142061" transform="translate(62.25,156.875)"/>
<path d="M0 0 C3 1 3 1 4.53515625 3.4765625 C11.40764042 17.64337131 11.40764042 17.64337131 11 26 C8.68737144 23.68737144 8.01380767 21.85060526 6.8359375 18.80859375 C6.23652344 17.26848633 6.23652344 17.26848633 5.625 15.69726562 C5.2125 14.62154297 4.8 13.54582031 4.375 12.4375 C3.95476562 11.35791016 3.53453125 10.27832031 3.1015625 9.16601562 C0 1.15532417 0 1.15532417 0 0 Z " fill="#2F59D7" transform="translate(117,50)"/>
<path d="M0 0 C3.30669336 2.73692466 4.86780532 6.39995179 6.6875 10.1875 C7.00783203 10.84169922 7.32816406 11.49589844 7.65820312 12.16992188 C8.44428292 13.77727907 9.22288683 15.38828858 10 17 C9.34 17.33 8.68 17.66 8 18 C8.350625 18.763125 8.70125 19.52625 9.0625 20.3125 C10 23 10 23 9 26 C0 4.8647541 0 4.8647541 0 0 Z " fill="#6ABBF4" transform="translate(95,46)"/>
<path d="M0 0 C0.71027344 0.09796875 1.42054687 0.1959375 2.15234375 0.296875 C3.22162109 0.42835938 3.22162109 0.42835938 4.3125 0.5625 C4.89902344 0.72234375 5.48554687 0.8821875 6.08984375 1.046875 C6.41984375 1.706875 6.74984375 2.366875 7.08984375 3.046875 C5.43984375 3.376875 3.78984375 3.706875 2.08984375 4.046875 C4.56484375 4.541875 4.56484375 4.541875 7.08984375 5.046875 C7.08984375 5.376875 7.08984375 5.706875 7.08984375 6.046875 C0.02376184 6.18482454 -6.8837621 5.79493217 -13.91015625 5.046875 C-13.58015625 4.386875 -13.25015625 3.726875 -12.91015625 3.046875 C-10.9140625 2.703125 -10.9140625 2.703125 -8.47265625 2.546875 C-4.85033485 2.3143022 -3.11976359 0.07655862 0 0 Z " fill="#141981" transform="translate(49.91015625,155.953125)"/>
<path d="M0 0 C2.97 0 5.94 0 9 0 C9 0.33 9 0.66 9 1 C7.3603125 1.4021875 7.3603125 1.4021875 5.6875 1.8125 C1.65193146 3.04630518 1.65193146 3.04630518 -1 6 C-1 6.99 -1 7.98 -1 9 C-2.2879728 10.70196405 -3.62986661 12.36345179 -5 14 C-6.37780167 15.97360779 -7.68630267 17.98253624 -9 20 C-10 17 -10 17 -8.56640625 13.64453125 C-7.90851193 12.3619696 -7.24010257 11.08475943 -6.5625 9.8125 C-6.22412109 9.15830078 -5.88574219 8.50410156 -5.53710938 7.83007812 C-4.70030902 6.21540701 -3.85130254 4.60707237 -3 3 C-2.34 3 -1.68 3 -1 3 C-0.67 2.01 -0.34 1.02 0 0 Z " fill="#0E035B" transform="translate(79,39)"/>
<path d="M0 0 C3.30244841 3.09295596 5.13952782 6.54286466 7.25 10.5 C7.62640625 11.17675781 8.0028125 11.85351562 8.390625 12.55078125 C9.34270892 14.32543767 10.17976453 16.1606841 11 18 C10.67 18.99 10.34 19.98 10 21 C9.59007813 20.24074219 9.18015625 19.48148438 8.7578125 18.69921875 C8.21898438 17.70535156 7.68015625 16.71148437 7.125 15.6875 C6.32449219 14.20830078 6.32449219 14.20830078 5.5078125 12.69921875 C3.99277874 9.90413542 3.99277874 9.90413542 2 7 C2 6.01 2 5.02 2 4 C1.01 4.33 0.02 4.66 -1 5 C-0.67 3.35 -0.34 1.7 0 0 Z " fill="#11137F" transform="translate(106,77)"/>
<path d="M0 0 C-0.33 1.32 -0.66 2.64 -1 4 C0.32 3.67 1.64 3.34 3 3 C1.80371747 5.39256506 0.87434735 5.79843378 -1.4375 7.0625 C-2.05496094 7.40410156 -2.67242187 7.74570313 -3.30859375 8.09765625 C-4.52991482 8.74921553 -5.76188703 9.38094352 -7 10 C-7.3125 7.8125 -7.3125 7.8125 -7 5 C-2.77777778 0 -2.77777778 0 0 0 Z " fill="#7B1DC5" transform="translate(48,105)"/>
<path d="M0 0 C3 1 3 1 4.7890625 4.125 C5.41119621 5.41180648 6.02280239 6.70374412 6.625 8 C8.39903629 12.28854102 8.39903629 12.28854102 11 16 C11.04063832 17.66617115 11.042721 19.33388095 11 21 C8.74340619 17.61510929 6.84667354 14.08610414 4.9375 10.5 C4.39125977 9.48486328 4.39125977 9.48486328 3.83398438 8.44921875 C2.34570068 5.65971844 1.00176264 3.00528792 0 0 Z " fill="#32008A" transform="translate(147,107)"/>
<path d="M0 0 C8.91 0 17.82 0 27 0 C27 0.33 27 0.66 27 1 C21.39 1 15.78 1 10 1 C9.67 1.99 9.34 2.98 9 4 C8.01 3.34 7.02 2.68 6 2 C4.0103005 1.60986284 2.00980131 1.26797351 0 1 C0 0.67 0 0.34 0 0 Z " fill="#63A9EB" transform="translate(82,38)"/>
<path d="M0 0 C3.3 0.33 6.6 0.66 10 1 C10 1.33 10 1.66 10 2 C13.3 2.33 16.6 2.66 20 3 C20 3.33 20 3.66 20 4 C17.77090129 4.02714735 15.54170633 4.04646254 13.3125 4.0625 C12.07113281 4.07410156 10.82976563 4.08570313 9.55078125 4.09765625 C6.53764546 4.01478673 3.91724661 3.70839449 1 3 C0.67 2.01 0.34 1.02 0 0 Z " fill="#080830" transform="translate(27,158)"/>
<path d="M0 0 C0.66 0.33 1.32 0.66 2 1 C-0.87494471 4.98069267 -3.82117329 7.43571997 -8 10 C-6.07517084 3.33712984 -6.07517084 3.33712984 -3 1 C-2.01 0.67 -1.02 0.34 0 0 Z " fill="#081E8E" transform="translate(64,124)"/>
<path d="M0 0 C0.33 0 0.66 0 1 0 C1.125 2.375 1.125 2.375 1 5 C0.34 5.66 -0.32 6.32 -1 7 C-1 7.99 -1 8.98 -1 10 C-2.27754554 12.0360882 -3.60699818 14.04109119 -5 16 C-5.66 15.01 -6.32 14.02 -7 13 C-6.57847656 12.22914062 -6.15695313 11.45828125 -5.72265625 10.6640625 C-5.17480469 9.66117188 -4.62695312 8.65828125 -4.0625 7.625 C-3.51722656 6.62726563 -2.97195312 5.62953125 -2.41015625 4.6015625 C-1.5850241 3.07929654 -0.77435609 1.54871217 0 0 Z " fill="#2F19A6" transform="translate(40,111)"/>
<path d="M0 0 C4.28180901 3.96282037 6.83314545 8.66403627 7.25 14.5 C7.1675 15.325 7.085 16.15 7 17 C4.55213773 14.55213773 3.69919356 12.25682658 2.375 9.0625 C1.70597656 7.47115234 1.70597656 7.47115234 1.0234375 5.84765625 C0 3 0 3 0 0 Z " fill="#3B52E3" transform="translate(121,59)"/>
<path d="M0 0 C4.875 2.75 4.875 2.75 6 5 C1.23947038 6.97387813 -1.96488101 7.0070238 -7 6 C-7 5.67 -7 5.34 -7 5 C-4.36 4.67 -1.72 4.34 1 4 C0.67 2.68 0.34 1.36 0 0 Z " fill="#1E0478" transform="translate(135,131)"/>
<path d="M0 0 C5.28 0 10.56 0 16 0 C16 0.33 16 0.66 16 1 C14.43883181 1.33951619 12.87598662 1.67132544 11.3125 2 C10.00732422 2.2784375 10.00732422 2.2784375 8.67578125 2.5625 C6.06287036 2.98972047 3.64186962 3.07616201 1 3 C0.67 2.01 0.34 1.02 0 0 Z " fill="#7BB2FA" transform="translate(84,104)"/>
<path d="M0 0 C2.5654594 2.5654594 2.54046087 4.47686668 3 8 C1.68 8.33 0.36 8.66 -1 9 C-2.42944945 6.64561267 -3.08661261 5.51967567 -2.625 2.75 C-2.41875 2.1725 -2.2125 1.595 -2 1 C-1.67 1.66 -1.34 2.32 -1 3 C-0.67 2.01 -0.34 1.02 0 0 Z " fill="#0A32A5" transform="translate(99,60)"/>
<path d="M0 0 C-0.33 0.99 -0.66 1.98 -1 3 C-4.63 3.66 -8.26 4.32 -12 5 C-12 4.01 -12 3.02 -12 2 C-10.56342755 1.66269158 -9.12569907 1.33030409 -7.6875 1 C-6.88699219 0.814375 -6.08648437 0.62875 -5.26171875 0.4375 C-3 0 -3 0 0 0 Z " fill="#593DD3" transform="translate(97,105)"/>
<path d="M0 0 C1 2 1 2 0.3125 4.75 C-1.07926349 8.1962715 -2.84459722 10.9824361 -5 14 C-6.33332095 11.3333581 -5.67102033 9.83319697 -5 7 C-4.34 7 -3.68 7 -3 7 C-2.690625 6.030625 -2.38125 5.06125 -2.0625 4.0625 C-1 1 -1 1 0 0 Z " fill="#0F0572" transform="translate(93,55)"/>
<path d="M0 0 C0.66 0.33 1.32 0.66 2 1 C1.2575 1.86625 0.515 2.7325 -0.25 3.625 C-2.74892049 6.61516127 -4.89373923 9.72359435 -7 13 C-8 10 -8 10 -6.875 7.0625 C-4.92360435 3.87522044 -3.03577721 2.13324885 0 0 Z " fill="#26027D" transform="translate(77,46)"/>
<path d="M0 0 C0.66 0 1.32 0 2 0 C2 3.3 2 6.6 2 10 C0.35 10.33 -1.3 10.66 -3 11 C-2.32829194 7.1936543 -1.27253436 3.64793184 0 0 Z " fill="#08197B" transform="translate(75,92)"/>
<path d="M0 0 C0.66 0.33 1.32 0.66 2 1 C0.35 4.3 -1.3 7.6 -3 11 C-3.66 10.67 -4.32 10.34 -5 10 C-4.49701212 5.59885603 -2.91227269 3.28804981 0 0 Z " fill="#8310C5" transform="translate(57,84)"/>
<path d="M0 0 C0.33 0.66 0.66 1.32 1 2 C1.99 2 2.98 2 4 2 C4.33 4.64 4.66 7.28 5 10 C3.68 10 2.36 10 1 10 C1.66 7.69 2.32 5.38 3 3 C1.68 3.33 0.36 3.66 -1 4 C-1 3.34 -1 2.68 -1 2 C-1.66 1.67 -2.32 1.34 -3 1 C-2.01 0.67 -1.02 0.34 0 0 Z " fill="#0F0F90" transform="translate(51,126)"/>
<path d="M0 0 C0.99 0.99 1.98 1.98 3 3 C2.34 3.66 1.68 4.32 1 5 C1.350625 5.763125 1.70125 6.52625 2.0625 7.3125 C3 10 3 10 2 13 C0.68 9.7 -0.64 6.4 -2 3 C-1.34 2.67 -0.68 2.34 0 2 C0 1.34 0 0.68 0 0 Z " fill="#5DA7F2" transform="translate(102,59)"/>
<path d="M0 0 C-2.85584773 1.90389849 -4.9311762 2.69462177 -8.1875 3.625 C-9.08855469 3.88539063 -9.98960938 4.14578125 -10.91796875 4.4140625 C-11.94857422 4.70410156 -11.94857422 4.70410156 -13 5 C-8.7797731 -0.27528362 -6.38501231 -0.54110274 0 0 Z " fill="#0E39B0" transform="translate(75,125)"/>
<path d="M0 0 C0.33 0.66 0.66 1.32 1 2 C-1.31 4.64 -3.62 7.28 -6 10 C-6.33 9.34 -6.66 8.68 -7 8 C-5.72015534 4.16046601 -3.18498704 2.34683256 0 0 Z " fill="#6B0ABB" transform="translate(60,79)"/>
<path d="M0 0 C0.33 0.66 0.66 1.32 1 2 C-3.75 6.875 -3.75 6.875 -6 8 C-4.52307692 2.33846154 -4.52307692 2.33846154 -1.875 0.625 C-0.946875 0.315625 -0.946875 0.315625 0 0 Z " fill="#6409A8" transform="translate(62,75)"/>
<path d="M0 0 C0.66 0.33 1.32 0.66 2 1 C0.68 3.31 -0.64 5.62 -2 8 C-2.66 7.67 -3.32 7.34 -4 7 C-2.92598892 4.08482708 -2.22189824 2.22189824 0 0 Z " fill="#8712C7" transform="translate(51,96)"/>
<path d="M0 0 C1.30138849 2.60277697 1.4217343 4.11814893 1 7 C-1.5 8.8125 -1.5 8.8125 -4 10 C-3.43454163 6.04179141 -2.19097652 3.3340947 0 0 Z " fill="#6C09A6" transform="translate(52,89)"/>
<path d="M0 0 C-2.6465335 2.6465335 -5.56221264 3.59941997 -9 5 C-8.625 3.0625 -8.625 3.0625 -8 1 C-5.29120665 -0.35439668 -2.99066732 -0.06501451 0 0 Z " fill="#070868" transform="translate(66,123)"/>
<path d="M0 0 C0.33 0 0.66 0 1 0 C1 3.3 1 6.6 1 10 C0.01 10.33 -0.98 10.66 -2 11 C-1.34 7.37 -0.68 3.74 0 0 Z " fill="#061B86" transform="translate(95,49)"/>
<path d="M0 0 C0.66 0.33 1.32 0.66 2 1 C1.04882866 2.1725131 0.08882991 3.33787015 -0.875 4.5 C-1.40867187 5.1496875 -1.94234375 5.799375 -2.4921875 6.46875 C-2.98976562 6.9740625 -3.48734375 7.479375 -4 8 C-4.66 8 -5.32 8 -6 8 C-6 7.34 -6 6.68 -6 6 C-5.34 6 -4.68 6 -4 6 C-3.71125 5.38125 -3.4225 4.7625 -3.125 4.125 C-2 2 -2 2 0 0 Z " fill="#0D36B0" transform="translate(60,130)"/>
<path d="M0 0 C2.6875 0.875 2.6875 0.875 5 2 C2.03312999 3.64826111 -0.65626525 4.44271087 -4 5 C-3 2 -3 2 0 0 Z " fill="#3031C4" transform="translate(59,120)"/>
<path d="M0 0 C1.19156292 4.76625167 0.3415946 5.87879351 -2 10 C-2.66 9.34 -3.32 8.68 -4 8 C-2.68 5.36 -1.36 2.72 0 0 Z " fill="#4A08B6" transform="translate(80,76)"/>
<path d="M0 0 C0.66 0.66 1.32 1.32 2 2 C1 5 1 5 -1 6 C-2.13350534 8.01669827 -2.13350534 8.01669827 -3 10 C-4 7 -4 7 -3.22265625 5.17578125 C-2.1484375 3.45052083 -1.07421875 1.72526042 0 0 Z " fill="#180574" transform="translate(86,69)"/>
<path d="M0 0 C1.25541557 3.76624671 0.37061958 5.37188934 -1 9 C-1.33 9 -1.66 9 -2 9 C-2.125 5.625 -2.125 5.625 -2 2 C-1.34 1.34 -0.68 0.68 0 0 Z " fill="#4E08AF" transform="translate(75,87)"/>
</svg>
